<svg width="319" height="214" viewBox="0 0 319 214" fill="none" xmlns="http://www.w3.org/2000/svg">
<g clip-path="url(#clip0_18_16)">
<path opacity="0.1" d="M184.806 35.2906C164.419 34.6045 144.995 28.05 126.457 20.8674C107.919 13.6847 89.5318 5.7229 69.6291 1.93135C56.8134 -0.507626 42.176 -0.833837 31.8731 6.0494C21.9591 12.6697 18.7667 24.0821 17.0581 34.6667C15.7713 42.6321 15.0204 51.0166 18.5824 58.4646C21.0567 63.6379 25.4427 67.9828 28.4797 72.9372C39.0514 90.1711 31.6268 111.453 20.2191 128.313C14.8692 136.22 8.66322 143.766 4.53951 152.183C0.415798 160.599 -1.48441 170.239 2.1453 178.814C5.74454 187.312 14.2955 193.69 23.5588 198.169C42.3726 207.26 64.5316 209.853 86.137 211.305C133.966 214.516 182.043 213.037 229.993 211.554C247.737 211.006 265.561 210.45 283.012 207.681C292.707 206.144 302.712 203.711 309.743 197.857C318.667 190.429 320.865 177.866 314.866 168.57C304.804 152.982 277.027 149.145 269.991 132.409C266.115 123.2 270.071 112.927 275.674 104.373C287.695 86.0213 307.862 69.9102 308.9 48.9486C309.61 34.5534 299.886 20.1525 284.871 13.3464C269.129 6.22916 247.325 7.15532 235.734 18.9875C223.801 31.1847 202.808 35.8942 184.806 35.2906Z" fill="#6C63FF"/>
<g opacity="0.5">
<path opacity="0.5" d="M138.361 111.438L129.126 111.641L127.619 113.718L127.628 120.886L129.515 122.204L138.375 122.192L140.257 120.115L140.249 113.323L138.361 111.438Z" fill="#6C63FF"/>
<path opacity="0.2" d="M138.169 112.571C138.169 112.571 129.689 113.903 128.934 112.583L129.123 111.641L138.168 111.43L138.169 112.571Z" fill="white"/>
<path opacity="0.5" d="M139.142 132.188L140.651 133.697L140.66 140.879L139.155 142.367C139.155 142.367 133.692 144.26 130.108 142.754L128.408 141.06L128.399 133.878L129.906 132.178L139.142 132.188Z" fill="#6C63FF"/>
<path opacity="0.2" d="M138.766 133.887C138.766 133.887 132.171 135.404 129.908 133.899L129.906 132.2L139.142 132.188L138.766 133.887Z" fill="white"/>
<path opacity="0.5" d="M135.546 122.146L135.559 132.35C135.538 132.754 135.358 133.133 135.059 133.405C134.759 133.677 134.364 133.818 133.96 133.799C133.556 133.819 133.161 133.679 132.861 133.408C132.56 133.137 132.379 132.758 132.357 132.354L132.344 122.15C132.343 121.283 133.17 120.61 134.131 120.709C134.502 120.731 134.853 120.89 135.114 121.156C135.375 121.421 135.529 121.774 135.546 122.146Z" fill="#6C63FF"/>
<path opacity="0.5" d="M153.153 111.712L143.918 111.912L142.411 113.988L142.42 121.156L144.307 122.474L153.167 122.463L155.049 120.386L155.041 113.593L153.153 111.712Z" fill="#6C63FF"/>
<path opacity="0.2" d="M152.964 112.842C152.964 112.842 144.484 114.173 143.729 112.854L143.915 111.912L152.962 111.712L152.964 112.842Z" fill="white"/>
<path opacity="0.5" d="M153.928 132.458L155.437 133.967L155.446 141.149L153.941 142.646C153.941 142.646 148.476 144.54 144.894 143.033L143.194 141.339L143.185 134.171L144.693 132.47L153.928 132.458Z" fill="#6C63FF"/>
<path opacity="0.2" d="M153.558 134.158C153.558 134.158 146.963 135.675 144.7 134.169L144.698 132.47L153.928 132.458L153.558 134.158Z" fill="white"/>
<path opacity="0.5" d="M150.327 122.417L150.34 132.621C150.318 133.024 150.138 133.403 149.839 133.675C149.539 133.946 149.145 134.088 148.741 134.07C148.337 134.09 147.941 133.95 147.641 133.679C147.34 133.408 147.158 133.029 147.136 132.625L147.122 122.421C147.121 121.554 147.948 120.881 148.912 120.979C149.283 121.002 149.633 121.161 149.895 121.426C150.156 121.692 150.31 122.045 150.327 122.417Z" fill="#6C63FF"/>
<path opacity="0.5" d="M171.99 117.143L164.386 117.31L163.146 119.019L163.154 124.919L164.706 126.006L172.001 125.996L173.55 124.284L173.543 118.693L171.99 117.143Z" fill="#6C63FF"/>
<path opacity="0.2" d="M171.834 118.077C171.834 118.077 164.855 119.171 164.232 118.087L164.386 117.31L171.838 117.143L171.834 118.077Z" fill="white"/>
<path opacity="0.5" d="M172.63 134.224L173.874 135.465L173.882 141.366L172.641 142.61C172.641 142.61 168.144 144.169 165.189 142.929L163.791 141.534L163.783 135.633L165.023 134.234L172.63 134.224Z" fill="#6C63FF"/>
<path opacity="0.2" d="M172.323 135.622C172.323 135.622 166.893 136.872 165.031 135.632L165.029 134.234L172.63 134.224L172.323 135.622Z" fill="white"/>
<path opacity="0.5" d="M169.672 125.958L169.682 134.358C169.665 134.69 169.517 135.003 169.27 135.226C169.023 135.45 168.697 135.566 168.365 135.55C168.032 135.567 167.707 135.451 167.46 135.228C167.213 135.006 167.064 134.694 167.047 134.361L167.036 125.961C167.046 125.783 167.093 125.61 167.175 125.451C167.256 125.293 167.369 125.154 167.508 125.042C167.646 124.93 167.806 124.849 167.978 124.802C168.15 124.756 168.329 124.747 168.505 124.774C168.811 124.792 169.1 124.924 169.315 125.142C169.53 125.361 169.657 125.651 169.672 125.958Z" fill="#6C63FF"/>
<path opacity="0.5" d="M184.165 117.367L176.561 117.532L175.324 119.241L175.332 125.144L176.884 126.227L184.176 126.218L185.725 124.509L185.718 118.918L184.165 117.367Z" fill="#6C63FF"/>
<path opacity="0.2" d="M184.011 118.298C184.011 118.298 177.03 119.396 176.407 118.308L176.561 117.532L184.013 117.368L184.011 118.298Z" fill="white"/>
<path opacity="0.5" d="M184.808 134.448L186.049 135.687L186.057 141.587L184.819 142.832C184.819 142.832 180.319 144.39 177.367 143.154L175.971 141.766L175.964 135.858L177.204 134.458L184.808 134.448Z" fill="#6C63FF"/>
<path opacity="0.2" d="M184.498 135.847C184.498 135.847 179.071 137.094 177.206 135.856L177.204 134.458L184.808 134.448L184.498 135.847Z" fill="white"/>
<path opacity="0.5" d="M181.85 126.179L181.861 134.577C181.843 134.909 181.695 135.222 181.448 135.445C181.201 135.669 180.875 135.785 180.543 135.769C180.21 135.786 179.885 135.67 179.637 135.447C179.389 135.225 179.24 134.913 179.222 134.58L179.211 126.183C179.21 125.47 179.899 124.917 180.683 124.999C180.989 125.016 181.278 125.147 181.493 125.365C181.708 125.583 181.835 125.873 181.85 126.179Z" fill="#6C63FF"/>
</g>
<path d="M289.746 147.714C289.152 146.641 288.041 145.935 286.873 145.611C285.691 145.328 284.47 145.253 283.263 145.389C281.312 145.53 279.378 145.852 277.487 146.349C276.314 146.66 275.098 147.076 274.307 148.011C274.285 148.038 274.26 148.072 274.235 148.099C273.024 148.418 271.821 148.909 270.648 149.308C269.472 149.701 268.274 150.028 267.061 150.288C268.647 149.383 270.192 148.425 271.498 147.147C272.116 146.546 272.67 145.882 273.152 145.167C274.049 145.423 274.99 145.485 275.912 145.349C277.78 145.026 279.288 143.687 280.692 142.381L285.205 138.215C285.924 137.551 286.655 136.871 287.134 136.003C287.781 134.795 287.837 133.358 287.852 131.98C287.871 130.085 287.847 128.19 287.789 126.298L289.22 127.401C289 125.068 289.431 122.719 290.465 120.615C290.96 119.612 291.61 118.614 291.622 117.49C291.642 115.755 290.15 114.392 288.623 113.626C287.095 112.861 285.378 112.371 284.126 111.193C282.263 109.442 281.912 106.644 280.99 104.242C280.443 102.927 279.795 101.656 279.053 100.441L277.26 97.3216C276.358 95.6779 275.353 94.0933 274.251 92.5772C272.387 90.1239 270.041 88.1022 267.712 86.1026L255.598 75.6852C252.652 73.1505 249.696 70.6131 246.51 68.3963C240.049 63.8994 232.761 60.8152 225.52 57.7612C223.697 56.9902 221.8 56.2081 219.829 56.3046C218.345 56.4028 216.939 57.0072 215.846 58.0169C214.808 57.703 213.793 57.3186 212.808 56.8662L212.731 56.8304C212.753 56.6674 212.777 56.5072 212.794 56.3442C212.818 56.1287 212.832 55.9132 212.848 55.695C213.393 55.6102 213.92 55.4369 214.409 55.1819C214.658 55.0641 214.877 54.8932 215.052 54.6811C215.274 54.312 215.387 53.8877 215.379 53.457C215.596 50.5701 215.813 47.6556 215.572 44.7831C215.331 41.9107 214.606 39.0029 213.077 36.5631C212.604 35.8068 212.012 35.07 211.192 34.7424C210.087 34.3019 208.81 34.7151 207.631 34.5178C205.591 34.1751 204.316 32.1797 202.837 30.7093C199.098 26.9878 192.71 26.4354 188.403 29.4574C186.771 30.6059 185.464 32.1628 184.009 33.5348C182.553 34.9068 180.846 36.1493 178.879 36.4198C178.516 36.4356 178.161 36.5304 177.838 36.6974C177.436 36.952 177.254 37.4412 177.1 37.8944C176.55 39.4586 176.022 41.0642 175.856 42.6996C175.837 42.6002 175.82 42.5008 175.803 42.4014C175.729 43.0071 175.714 43.6187 175.759 44.2273C175.815 45.003 176.04 45.757 176.419 46.4363C176.734 47.0821 177.27 47.5932 177.93 47.8762C178.397 48.0409 178.89 48.1198 179.385 48.1091L179.603 48.1089C179.523 48.3217 179.446 48.5345 179.375 48.75C178.763 50.5763 178.453 52.4904 178.458 54.4167C178.47 64.0847 186.19 71.9085 195.706 71.8961C196.852 71.889 197.994 71.7672 199.115 71.5325C199.488 71.6508 199.86 71.7719 200.219 71.9012C200.954 72.1433 201.675 72.4264 202.379 72.7492C202.677 72.8897 203.884 73.5925 205.343 74.4994L205.244 74.7067C203.824 76.0375 202.783 77.7224 202.228 79.5885C201.673 81.4547 201.624 83.435 202.086 85.3263C203.146 89.4324 206.609 92.9498 206.267 97.1794C206.218 97.7816 206.092 98.3922 206.194 98.9887C206.336 99.8173 206.897 100.491 207.459 101.103C207.945 101.638 208.451 102.157 208.965 102.665C208.927 105.363 208.696 108.06 208.445 110.75C208.424 110.985 208.418 111.223 208.416 111.463C208.432 112.626 208.856 113.747 209.613 114.63C210.414 115.604 210.736 117.065 210.586 118.369C210.371 120.236 209.454 121.931 208.84 123.702C206.074 131.67 209.497 140.645 207.587 148.871C207.118 150.897 206.325 152.867 206.215 154.95C206.153 156.251 206.359 157.615 205.861 158.818C205.429 159.862 204.528 160.618 203.676 161.351C202.472 162.385 201.299 163.455 200.158 164.56C198.43 163.617 196.646 162.78 194.817 162.053C194.518 161.933 194.214 161.828 193.905 161.739C191.744 159.72 189.021 158.431 186.463 156.948C184.342 155.722 182.32 154.343 180.286 152.965C178.353 151.641 176.377 150.307 174.741 148.605C173.912 147.744 173.174 146.795 172.281 146.008C171.497 145.357 170.666 144.763 169.795 144.233C165.875 141.699 162.138 138.893 158.611 135.836C155.922 133.508 153.721 130.509 150.848 128.421C149.088 127.142 147.041 125.976 144.889 126.219C144.203 126.301 143.539 126.507 142.927 126.827C142.356 126.585 141.746 126.449 141.127 126.426C139.377 126.373 137.772 127.325 136.271 128.241C127.446 133.625 118.482 138.769 109.38 143.673C107.543 144.665 105.695 145.648 103.941 146.783C100.519 149.004 97.4879 151.778 94.9706 154.99C94.5077 155.579 93.9234 156.248 93.1863 156.161C92.9845 156.13 92.7905 156.061 92.6147 155.957C91.4795 155.343 90.7824 154.153 90.1268 153.024C89.651 152.196 89.1364 151.332 88.4401 150.703C88.2907 150.311 88.0917 149.94 87.848 149.599C88.8247 147.178 89.666 144.699 90.4467 142.204C90.8534 140.894 91.2464 139.576 91.7664 138.304C93.0486 135.159 95.0956 132.309 95.8172 128.982C95.99 128.178 96.0911 127.352 96.2253 126.539C104.159 124.966 110.139 117.864 110.128 109.345C110.115 99.6775 102.393 91.8537 92.879 91.8661C83.3648 91.8785 75.666 99.7223 75.6786 109.39C75.6739 112.333 76.4088 115.23 77.8158 117.814C79.2227 120.398 81.2564 122.586 83.7298 124.177C83.7299 124.211 83.7299 124.244 83.73 124.274C83.7141 124.83 83.6604 125.383 83.5693 125.932C83.2543 127.783 82.4699 129.524 81.6799 131.213C81.157 132.343 80.6341 133.479 80.0918 134.607C79.8308 134.555 79.5775 134.47 79.3379 134.354C78.8711 134.095 78.6661 133.526 78.4888 133.024C77.7041 130.721 76.7443 128.482 75.6179 126.326C75.1784 125.41 74.6205 124.555 73.9585 123.784C72.792 122.509 71.1957 121.755 69.6518 120.992C69.3756 120.859 69.1187 120.716 68.8536 120.589C68.6241 120.419 68.3843 120.263 68.1353 120.123C66.8509 119.399 65.426 118.878 64.3538 117.863C63.5496 117.102 62.9963 116.111 62.2445 115.303C60.9924 113.959 59.2663 113.193 57.5899 112.463C56.7172 112.083 55.8004 111.695 54.8482 111.749C54.714 111.756 54.5804 111.771 54.448 111.794C54.2191 111.833 53.9925 111.885 53.7692 111.949C53.5517 111.834 53.3463 111.697 53.156 111.541C52.1309 110.752 51.7317 109.397 51.3961 108.135C50.8413 106.025 50.2561 103.841 50.5955 101.68C50.6546 101.308 50.7352 100.939 50.837 100.575C50.9223 100.434 51.005 100.299 51.0793 100.147C53.2759 99.4828 55.2822 98.3031 56.931 96.7061C58.5798 95.109 59.8233 93.1407 60.558 90.9652C61.2926 88.7897 61.4972 86.47 61.1546 84.1993C60.8119 81.9287 59.9321 79.7728 58.5882 77.9115C58.4472 77.7183 58.3117 77.5306 58.1542 77.343L58.3196 77.2516C59.8448 76.316 60.1896 74.0836 59.4809 72.4216C58.7721 70.7596 57.2691 69.5876 55.7471 68.667C55.5261 68.5319 55.3023 68.4052 55.0758 68.2784L54.8825 68.1737C54.7112 68.08 54.5428 67.9891 54.3715 67.8981L54.1699 67.7962C53.9683 67.6942 53.7666 67.5978 53.565 67.5042L53.4739 67.4601C53.2226 67.3472 52.9713 67.237 52.7172 67.1324C52.4714 67.0305 52.2256 66.9369 51.9771 66.8571L51.8749 66.8186C51.6402 66.7332 51.4027 66.6534 51.1653 66.5764L51.1128 66.5599C49.3759 65.9974 47.5657 65.6944 45.7404 65.6609C43.9537 65.6739 42.1733 65.8734 40.4279 66.2562C38.7286 66.5664 37.0647 67.047 35.4616 67.6907C32.8121 68.8185 30.4771 70.5756 28.659 72.8098C28.2752 72.8395 27.8948 72.9028 27.5221 72.9992C26.0293 73.3795 24.6862 74.2155 23.4592 75.1618C22.4314 75.92 21.5212 76.8259 20.7578 77.8503C19.8589 79.1627 19.2398 80.6463 18.939 82.2088C17.8993 87.1077 19.1921 92.1527 20.1452 97.0738C21.0984 101.995 21.6519 107.359 19.3364 111.779C18.4636 113.437 17.2234 114.878 16.3064 116.506C15.3894 118.134 14.7544 120.099 15.2866 121.902C15.9326 124.092 18.0514 125.467 19.1581 127.455C20.4528 129.771 20.1008 132.884 18.4143 134.914C18.3399 135.002 18.2655 135.091 18.1855 135.19C18.1056 135.29 17.9926 135.395 17.8878 135.489C19.6303 136.1 21.5698 135.437 23.1307 134.452C24.3791 133.712 25.4374 132.69 26.221 131.467C28.1902 128.222 27.2988 124.03 27.9894 120.281C28.8966 115.371 32.5785 110.988 32.0641 106.019C31.7175 102.686 29.5389 99.9012 27.8266 97.0362C26.6884 95.1133 25.734 93.0872 24.9758 90.985C24.9453 90.8966 24.9149 90.8055 24.8816 90.7089C24.3802 89.287 23.9946 87.7792 24.2493 86.29C24.3362 85.8077 24.4802 85.3373 24.6781 84.889C24.6781 84.9415 24.6782 84.9967 24.6783 85.0492C24.7137 86.4892 25.0355 87.9077 25.6249 89.2218C27.3547 92.8105 31.5081 94.4625 34.1478 97.3705C34.2583 97.4919 34.3634 97.6161 34.4684 97.743C34.4988 97.7761 34.5265 97.812 34.5541 97.8478L34.7781 98.1238L34.8721 98.2535C34.9412 98.3501 35.0103 98.4467 35.074 98.546L35.1597 98.6702C35.2482 98.811 35.3367 98.9462 35.4197 99.098C36.0894 98.3541 36.7812 97.5715 37.0504 96.6098C37.0752 96.5269 37.0916 96.4413 37.1081 96.3556C37.1302 96.3777 37.1495 96.4025 37.1717 96.4274C37.2245 96.7229 37.2663 97.0184 37.3053 97.3167C37.3058 97.7429 37.3517 98.1679 37.4422 98.5844C37.6554 101.236 37.4906 103.96 37.3174 106.62C37.2254 108.043 37.598 110.155 36.6941 111.217L36.6665 111.248C36.6135 111.31 36.5555 111.367 36.4929 111.419C36.3385 111.58 36.1814 111.737 36.0353 111.903C33.0037 115.332 31.6299 120.196 31.7078 124.853C31.7864 130.154 33.4851 135.287 35.4098 140.215C36.0821 142.014 36.8737 143.766 37.7793 145.46C38.2468 146.374 38.8647 147.204 39.6069 147.913C40.3834 148.6 41.328 149.052 42.2587 149.493C42.4907 149.603 42.7255 149.71 42.9575 149.823L43.5513 150.099L48.0724 152.242C48.902 153.459 49.7041 154.709 50.5144 155.962C50.6306 156.139 50.744 156.321 50.8629 156.498C51.7479 157.878 52.6385 159.258 53.5456 160.599L61.1755 171.876C61.7286 172.704 62.3065 173.532 63.0829 174.144C63.3038 174.317 63.5427 174.466 63.7956 174.588C63.924 174.649 64.0559 174.704 64.1905 174.75C64.0237 175.001 63.9526 175.304 63.9901 175.604C64.0923 175.897 64.2862 176.15 64.5431 176.324C66.2673 177.747 68.182 179.247 68.7259 181.437C69.1115 182.997 68.7301 184.669 69.0771 186.238C69.7129 189.065 72.5111 190.777 75.1567 191.862C81.0859 194.291 87.67 195.218 93.9644 194.078C100.259 192.937 106.236 189.661 110.306 184.665C111.557 183.122 112.623 181.438 113.811 179.845C114.637 178.723 115.547 177.653 116.486 176.621C117.501 176.155 118.48 175.613 119.413 174.999C121.401 173.673 123.113 171.972 124.927 170.395C126.281 169.211 127.698 168.093 128.941 166.799C130.057 165.571 131.1 164.278 132.063 162.927C134.268 159.997 136.545 157.124 138.894 154.308C140.151 152.801 141.482 151.267 143.239 150.436L143.319 150.402C143.531 151.64 144.512 152.688 145.201 153.756C148.049 158.172 151.031 162.718 155.428 165.529C157.837 167.068 160.56 168.009 163.277 168.867C170.18 171.04 177.193 172.744 184.212 174.45C184.443 174.008 184.669 173.599 184.922 173.201C185.031 173.315 185.133 173.437 185.226 173.565C185.257 173.609 185.282 173.656 185.312 173.7C185.261 173.71 185.212 173.724 185.163 173.742C184.713 173.952 184.359 174.326 184.173 174.787C183.419 176.305 183.35 178.064 183.316 179.76C183.293 181.418 183.32 183.075 183.323 184.732C183.283 185.351 183.378 185.971 183.601 186.55C184.138 187.654 185.499 188.064 186.717 188.203C188.831 188.435 190.962 188.233 193.064 187.946C193.187 188.442 193.386 188.917 193.654 189.351C194.838 191.283 196.879 192.557 199.003 193.303C201.126 194.049 203.376 194.344 205.582 194.78C209.5 195.554 213.509 196.795 217.403 195.911C218.956 195.558 220.437 194.877 221.991 194.577C225.548 193.898 229.237 195.258 232.819 194.706C234.549 194.428 236.185 193.735 237.752 192.94C238.542 192.592 239.258 192.096 239.862 191.479C240.435 190.832 240.779 189.914 240.54 189.078C240.404 188.597 240.095 188.189 239.887 187.736C239.609 187.012 239.45 186.247 239.418 185.471C239.126 182.538 238.626 179.629 237.921 176.767C237.902 176.687 237.88 176.604 237.858 176.521C240.564 175.443 242.988 173.752 245.381 172.069L250.53 168.455C252.184 167.284 253.88 166.108 255.74 165.288C258.592 164.03 261.752 163.667 264.862 163.666C266.135 163.664 267.41 163.726 268.677 163.84C268.516 164.017 268.395 164.226 268.322 164.454C268.069 165.245 268.473 166.111 269.073 166.688C269.673 167.264 270.454 167.589 271.158 167.989C273.105 169.082 274.726 170.673 275.857 172.599C276.565 173.81 277.08 175.282 276.635 176.617C276.085 178.291 274.118 179.449 274.234 181.211C274.302 182.249 275.139 183.107 276.092 183.49C277.044 183.873 278.102 183.866 279.128 183.834C280.809 183.779 282.54 183.647 284.043 182.88C285.055 182.362 285.913 181.582 286.753 180.811C287.52 180.105 288.303 179.372 288.738 178.421C289.145 177.526 289.207 176.512 289.225 175.529C289.302 170.899 288.498 166.207 289.411 161.67C289.685 160.288 290.125 158.937 290.358 157.545C290.725 155.334 290.581 153.103 290.438 150.882C290.367 149.788 290.283 148.661 289.746 147.714Z" fill="url(#paint0_linear_18_16)"/>
<path opacity="0.06" d="M231.347 83.7634C230.263 84.4968 229.887 85.9116 229.751 87.2155C229.17 92.7602 231.462 98.2459 231.318 103.818C231.202 108.251 229.557 112.482 227.934 116.609C225.167 123.648 223.73 131.29 223.18 138.835C222.629 146.379 221.82 154.236 217.782 160.622C216.864 162.068 215.795 163.412 214.897 164.866C213.955 166.387 213.21 168.018 212.378 169.599C209.928 174.268 206.768 178.528 203.01 182.226C201.907 183.305 200.738 184.351 199.332 184.974C198.425 185.369 197.448 185.579 196.46 185.59C195.471 185.602 194.49 185.416 193.574 185.042C191.685 184.263 190.093 182.503 190.013 180.459C189.942 178.63 191.03 176.98 192.121 175.514C195.819 170.549 200.073 166.025 204.8 162.029C205.657 161.304 206.562 160.554 207.005 159.521C207.503 158.329 207.297 156.979 207.359 155.689C207.458 153.631 208.256 151.677 208.731 149.671C210.652 141.522 207.207 132.632 209.99 124.737C210.609 122.982 211.528 121.304 211.744 119.456C211.897 118.163 211.575 116.718 210.765 115.75C210.006 114.88 209.581 113.768 209.566 112.613C209.565 112.376 209.565 112.141 209.592 111.909C209.924 108.293 210.254 104.66 210.067 101.033C209.88 97.4067 209.155 93.7614 207.478 90.54C206.609 88.8699 205.486 87.3079 204.949 85.5049C204.084 82.5862 204.874 79.4279 206.154 76.664C207.153 74.5025 208.487 72.4429 210.351 70.9599C213.814 68.2069 219.002 67.8825 222.8 70.1509C225.601 71.8212 227.521 74.6335 229.078 77.5014C230.196 79.5966 231.36 81.3712 231.347 83.7634Z" fill="black"/>
<path d="M222.119 61.7599C221.591 63.1915 221.065 64.623 220.543 66.0546C220.196 66.9942 219.852 67.9421 219.495 68.8818C217.844 73.2124 215.998 77.4743 213.104 81.0607C213.537 80.5243 209.457 77.8336 206.449 75.9979C204.982 75.0965 203.767 74.402 203.468 74.2643C202.759 73.9448 202.034 73.6636 201.295 73.4218C200.149 73.0366 198.989 72.7039 197.843 72.2883C195.192 71.3332 197.043 69.8916 198.175 68.3433C201.881 63.2724 202.575 56.3492 206.784 51.6893C208.334 54.6263 210.782 56.9899 213.771 58.434C213.829 58.4643 213.889 58.4918 213.95 58.5166C216.455 59.6845 219.221 60.1864 221.812 61.1637C221.952 61.216 222.115 61.2904 222.163 61.4395C222.18 61.5483 222.165 61.6599 222.119 61.7599Z" fill="#A1616A"/>
<path d="M215.045 164.09C213.849 165.811 213.105 167.806 212.883 169.89C212.662 171.975 212.969 174.082 213.777 176.016C213.982 176.557 214.3 177.047 214.709 177.454C215.231 177.861 215.838 178.144 216.485 178.281C221.969 179.834 227.82 179.52 233.433 178.535C235.334 178.239 237.203 177.761 239.012 177.105C241.79 176.038 244.269 174.336 246.718 172.637L251.897 169.055C253.573 167.896 255.264 166.731 257.137 165.916C260.006 164.672 263.185 164.312 266.312 164.31C268.999 164.31 271.679 164.563 274.318 165.065C276.076 165.403 278.183 165.751 279.418 164.465C280.123 163.737 280.332 162.673 280.468 161.671C281.009 157.768 280.994 153.809 280.423 149.911C280.408 149.584 280.289 149.269 280.082 149.014C279.887 148.849 279.65 148.741 279.397 148.703C276.954 148.154 274.504 149.303 272.131 150.094C267.201 151.741 261.905 151.944 256.889 153.301C251.624 154.725 246.682 157.414 241.239 157.965C238.645 158.228 236.039 158.005 233.439 158.066C231.027 158.122 228.779 158.959 226.416 159.062C221.862 159.269 217.902 160.07 215.045 164.09Z" fill="#A1616A"/>
<path opacity="0.06" d="M215.045 164.09C213.849 165.811 213.105 167.806 212.883 169.89C212.662 171.975 212.969 174.082 213.777 176.016C213.982 176.557 214.3 177.047 214.709 177.454C215.231 177.861 215.838 178.144 216.485 178.281C221.969 179.834 227.82 179.52 233.433 178.535C235.334 178.239 237.203 177.761 239.012 177.105C241.79 176.038 244.269 174.336 246.718 172.637L251.897 169.055C253.573 167.896 255.264 166.731 257.137 165.916C260.006 164.672 263.185 164.312 266.312 164.31C268.999 164.31 271.679 164.563 274.318 165.065C276.076 165.403 278.183 165.751 279.418 164.465C280.123 163.737 280.332 162.673 280.468 161.671C281.009 157.768 280.994 153.809 280.423 149.911C280.408 149.584 280.289 149.269 280.082 149.014C279.887 148.849 279.65 148.741 279.397 148.703C276.954 148.154 274.504 149.303 272.131 150.094C267.201 151.741 261.905 151.944 256.889 153.301C251.624 154.725 246.682 157.414 241.239 157.965C238.645 158.228 236.039 158.005 233.439 158.066C231.027 158.122 228.779 158.959 226.416 159.062C221.862 159.269 217.902 160.07 215.045 164.09Z" fill="black"/>
<path d="M219.493 158.245C219.364 158.855 219.249 159.502 219.431 160.098C219.658 160.685 220.041 161.198 220.537 161.583C225.235 165.781 231.941 166.642 238.21 167.316C239.908 167.499 241.636 167.682 243.316 167.373C244.848 167.095 246.276 166.416 247.686 165.746C250.72 164.303 253.771 162.843 256.371 160.724C258.922 158.649 260.966 155.995 263.608 154.038C266.611 151.824 270.305 150.554 272.984 147.949C274.922 146.074 276.208 143.627 276.654 140.967C276.956 139.151 276.854 137.298 276.647 135.47C276.426 133.368 276.073 131.23 275.072 129.37C273.912 127.217 271.967 125.592 269.915 124.258C265.572 121.441 260.461 119.696 255.28 119.747C248.104 119.82 241.485 124.008 236.341 128.708C230.899 133.685 226.498 139.693 223.391 146.384C221.637 150.173 220.329 154.153 219.493 158.245Z" fill="#464353"/>
<path opacity="0.06" d="M219.493 158.245C219.364 158.855 219.249 159.502 219.431 160.098C219.658 160.685 220.041 161.198 220.537 161.583C225.235 165.781 231.941 166.642 238.21 167.316C239.908 167.499 241.636 167.682 243.316 167.373C244.848 167.095 246.276 166.416 247.686 165.746C250.72 164.303 253.771 162.843 256.371 160.724C258.922 158.649 260.966 155.995 263.608 154.038C266.611 151.824 270.305 150.554 272.984 147.949C274.922 146.074 276.208 143.627 276.654 140.967C276.956 139.151 276.854 137.298 276.647 135.47C276.426 133.368 276.073 131.23 275.072 129.37C273.912 127.217 271.967 125.592 269.915 124.258C265.572 121.441 260.461 119.696 255.28 119.747C248.104 119.82 241.485 124.008 236.341 128.708C230.899 133.685 226.498 139.693 223.391 146.384C221.637 150.173 220.329 154.153 219.493 158.245Z" fill="black"/>
<path d="M231.347 83.7634C230.263 84.4968 229.887 85.9116 229.751 87.2155C229.17 92.7602 231.462 98.2459 231.318 103.818C231.202 108.251 229.557 112.482 227.934 116.609C225.167 123.648 223.73 131.29 223.18 138.835C222.629 146.379 221.82 154.236 217.782 160.622C216.864 162.068 215.795 163.412 214.897 164.866C213.955 166.387 213.21 168.018 212.378 169.599C209.928 174.268 206.768 178.528 203.01 182.226C201.907 183.305 200.738 184.351 199.332 184.974C198.425 185.369 197.448 185.579 196.46 185.59C195.471 185.602 194.49 185.416 193.574 185.042C191.685 184.263 190.093 182.503 190.013 180.459C189.942 178.63 191.03 176.98 192.121 175.514C195.819 170.549 200.073 166.025 204.8 162.029C205.657 161.304 206.562 160.554 207.005 159.521C207.503 158.329 207.297 156.979 207.359 155.689C207.458 153.631 208.256 151.677 208.731 149.671C210.652 141.522 207.207 132.632 209.99 124.737C210.609 122.982 211.528 121.304 211.744 119.456C211.897 118.163 211.575 116.718 210.765 115.75C210.006 114.88 209.581 113.768 209.566 112.613C209.565 112.376 209.565 112.141 209.592 111.909C209.924 108.293 210.254 104.66 210.067 101.033C209.88 97.4067 209.155 93.7614 207.478 90.54C206.609 88.8699 205.486 87.3079 204.949 85.5049C204.084 82.5862 204.874 79.4279 206.154 76.664C207.153 74.5025 208.487 72.4429 210.351 70.9599C213.814 68.2069 219.002 67.8825 222.8 70.1509C225.601 71.8212 227.521 74.6335 229.078 77.5014C230.196 79.5966 231.36 81.3712 231.347 83.7634Z" fill="#A1616A"/>
<path d="M216.121 102.34C221.891 102.333 226.559 94.9818 226.547 85.9214C226.535 76.8611 221.848 69.5223 216.079 69.5298C210.309 69.5373 205.641 76.8883 205.653 85.9487C205.665 95.009 210.352 102.348 216.121 102.34Z" fill="#A1616A"/>
<path d="M189.568 171.697C189.877 172.132 190.087 172.629 190.183 173.154C190.28 173.679 190.259 174.219 190.124 174.735C191.11 175.441 192.307 175.789 193.518 175.72C194.719 175.652 195.9 175.379 197.008 174.911C197.972 174.558 198.885 174.077 199.722 173.482C201.162 172.414 202.203 170.888 203.029 169.307C203.494 168.433 203.89 167.303 203.301 166.519C203.07 166.254 202.788 166.036 202.473 165.88C200.344 164.668 198.129 163.618 195.844 162.737C195.217 162.448 194.536 162.296 193.845 162.292C192.998 162.34 192.228 162.805 191.556 163.325C190.044 164.505 188.825 166.019 187.995 167.749C187.737 168.302 186.954 169.615 187.344 170.184C187.521 170.446 188.173 170.536 188.449 170.702C188.888 170.951 189.27 171.29 189.568 171.697Z" fill="#FBBEBE"/>
<path opacity="0.03" d="M189.568 171.697C189.877 172.132 190.087 172.629 190.183 173.154C190.28 173.679 190.259 174.219 190.124 174.735C191.11 175.441 192.307 175.789 193.518 175.72C194.719 175.652 195.9 175.379 197.008 174.911C197.972 174.558 198.885 174.077 199.722 173.482C201.162 172.414 202.203 170.888 203.029 169.307C203.494 168.433 203.89 167.303 203.301 166.519C203.07 166.254 202.788 166.036 202.473 165.88C200.344 164.668 198.129 163.618 195.844 162.737C195.217 162.448 194.536 162.296 193.845 162.292C192.998 162.34 192.228 162.805 191.556 163.325C190.044 164.505 188.825 166.019 187.995 167.749C187.737 168.302 186.954 169.615 187.344 170.184C187.521 170.446 188.173 170.536 188.449 170.702C188.888 170.951 189.27 171.29 189.568 171.697Z" fill="black"/>
<path d="M200.99 165.282C205.661 166.143 209.959 168.397 214.55 169.61C216.408 170.099 218.322 170.433 220.097 171.155C221.873 171.876 223.547 173.112 224.314 174.873C224.638 175.718 224.854 176.602 224.955 177.502C225.156 178.775 225.32 180.197 224.565 181.242C223.769 182.348 222.262 182.593 220.913 182.758C216.061 183.342 211.21 183.928 206.342 184.343C205.356 184.404 204.374 184.523 203.402 184.698C202.602 184.859 201.821 185.103 201.027 185.292C199.998 185.534 198.952 185.687 197.909 185.849C195.24 186.236 192.541 186.624 189.861 186.334C188.638 186.201 187.268 185.807 186.728 184.703C186.504 184.131 186.409 183.516 186.45 182.902C186.434 181.262 186.418 179.624 186.444 177.986C186.466 176.303 186.547 174.557 187.307 173.057C187.495 172.597 187.851 172.226 188.302 172.019C188.579 171.939 188.87 171.913 189.157 171.941C190.593 171.989 192.078 172.048 193.362 172.687C194.381 173.191 195.21 174.032 196.249 174.49C198.215 175.36 200.585 174.73 202.576 175.548C203.038 174.116 202.931 172.669 202.584 171.202C202.237 169.736 201.753 168.298 201.604 166.801C201.598 166.472 201.534 166.146 201.415 165.84C201.266 165.533 201.315 165.235 200.99 165.282Z" fill="#464353"/>
<path opacity="0.06" d="M200.99 165.282C205.661 166.143 209.959 168.397 214.55 169.61C216.408 170.099 218.322 170.433 220.097 171.155C221.873 171.876 223.547 173.112 224.314 174.873C224.638 175.718 224.854 176.602 224.955 177.502C225.156 178.775 225.32 180.197 224.565 181.242C223.769 182.348 222.262 182.593 220.913 182.758C216.061 183.342 211.21 183.928 206.342 184.343C205.356 184.404 204.374 184.523 203.402 184.698C202.602 184.859 201.821 185.103 201.027 185.292C199.998 185.534 198.952 185.687 197.909 185.849C195.24 186.236 192.541 186.624 189.861 186.334C188.638 186.201 187.268 185.807 186.728 184.703C186.504 184.131 186.409 183.516 186.45 182.902C186.434 181.262 186.418 179.624 186.444 177.986C186.466 176.303 186.547 174.557 187.307 173.057C187.495 172.597 187.851 172.226 188.302 172.019C188.579 171.939 188.87 171.913 189.157 171.941C190.593 171.989 192.078 172.048 193.362 172.687C194.381 173.191 195.21 174.032 196.249 174.49C198.215 175.36 200.585 174.73 202.576 175.548C203.038 174.116 202.931 172.669 202.584 171.202C202.237 169.736 201.753 168.298 201.604 166.801C201.598 166.472 201.534 166.146 201.415 165.84C201.266 165.533 201.315 165.235 200.99 165.282Z" fill="black"/>
<path d="M44.9231 118.386C43.9815 118.089 43.0745 118.924 42.5484 119.77C40.3614 123.22 40.5468 127.822 42.3043 131.51C42.7225 132.445 43.2988 133.302 44.0078 134.041C44.9585 134.976 46.182 135.574 47.3228 136.246C50.4883 138.112 53.2023 140.656 55.2707 143.694C56.623 145.684 57.6885 147.873 59.2228 149.725C62.9991 154.283 69.1982 156.341 72.8615 160.977C73.7378 162.081 74.4792 163.362 75.6478 164.164C76.3425 164.64 77.1517 164.923 77.9919 164.982C78.8321 165.041 79.6728 164.874 80.4272 164.499C81.1816 164.125 81.8222 163.555 82.283 162.849C82.7439 162.144 83.0081 161.328 83.0485 160.486C84.4672 158.393 85.6262 156.082 86.73 153.805C88.3631 150.328 89.7421 146.738 90.8562 143.062C91.2658 141.763 91.6616 140.456 92.1843 139.193C93.4748 136.076 95.5329 133.253 96.2573 129.959C96.5482 128.638 96.6181 127.265 97.0415 125.983C97.4207 124.832 98.0706 123.789 98.9365 122.942C101.803 120.146 103.344 116.075 105.622 112.785C106.548 111.455 107.509 110.128 108.12 108.624C108.731 107.121 108.963 105.4 108.39 103.881C107.817 102.363 106.322 101.138 104.705 101.226C103.981 101.302 103.279 101.519 102.638 101.864C100.41 102.925 98.3675 104.338 96.5877 106.048C95.8094 106.8 95.0733 107.594 94.3827 108.427C91.0151 112.464 88.3828 117.362 88.1578 122.616C88.0829 124.418 88.229 126.415 87.0881 127.811C83.9411 131.668 82.935 136.968 80.2521 141.165C79.0098 143.1 77.5854 145.104 75.4585 145.988C75.1444 146.14 74.7968 146.209 74.4486 146.188C73.5983 146.093 73.1086 145.198 72.7488 144.42C71.3426 141.384 69.7161 138.455 67.8823 135.656C67.1577 134.552 66.3586 133.421 65.2012 132.773C64.4112 132.335 63.4946 132.14 62.7515 131.627C61.7155 130.913 61.1729 129.695 60.6332 128.555C58.8841 124.873 56.671 121.43 54.048 118.31C52.8482 116.884 51.2675 115.411 49.4185 115.626C47.6578 115.835 46.5838 117.69 44.9231 118.386Z" fill="#FBBEBE"/>
<path opacity="0.03" d="M44.9231 118.386C43.9815 118.089 43.0745 118.924 42.5484 119.77C40.3614 123.22 40.5468 127.822 42.3043 131.51C42.7225 132.445 43.2988 133.302 44.0078 134.041C44.9585 134.976 46.182 135.574 47.3228 136.246C50.4883 138.112 53.2023 140.656 55.2707 143.694C56.623 145.684 57.6885 147.873 59.2228 149.725C62.9991 154.283 69.1982 156.341 72.8615 160.977C73.7378 162.081 74.4792 163.362 75.6478 164.164C76.3425 164.64 77.1517 164.923 77.9919 164.982C78.8321 165.041 79.6728 164.874 80.4272 164.499C81.1816 164.125 81.8222 163.555 82.283 162.849C82.7439 162.144 83.0081 161.328 83.0485 160.486C84.4672 158.393 85.6262 156.082 86.73 153.805C88.3631 150.328 89.7421 146.738 90.8562 143.062C91.2658 141.763 91.6616 140.456 92.1843 139.193C93.4748 136.076 95.5329 133.253 96.2573 129.959C96.5482 128.638 96.6181 127.265 97.0415 125.983C97.4207 124.832 98.0706 123.789 98.9365 122.942C101.803 120.146 103.344 116.075 105.622 112.785C106.548 111.455 107.509 110.128 108.12 108.624C108.731 107.121 108.963 105.4 108.39 103.881C107.817 102.363 106.322 101.138 104.705 101.226C103.981 101.302 103.279 101.519 102.638 101.864C100.41 102.925 98.3675 104.338 96.5877 106.048C95.8094 106.8 95.0733 107.594 94.3827 108.427C91.0151 112.464 88.3828 117.362 88.1578 122.616C88.0829 124.418 88.229 126.415 87.0881 127.811C83.9411 131.668 82.935 136.968 80.2521 141.165C79.0098 143.1 77.5854 145.104 75.4585 145.988C75.1444 146.14 74.7968 146.209 74.4486 146.188C73.5983 146.093 73.1086 145.198 72.7488 144.42C71.3426 141.384 69.7161 138.455 67.8823 135.656C67.1577 134.552 66.3586 133.421 65.2012 132.773C64.4112 132.335 63.4946 132.14 62.7515 131.627C61.7155 130.913 61.1729 129.695 60.6332 128.555C58.8841 124.873 56.671 121.43 54.048 118.31C52.8482 116.884 51.2675 115.411 49.4185 115.626C47.6578 115.835 46.5838 117.69 44.9231 118.386Z" fill="black"/>
<path d="M44.7126 105.188C48.7309 105.183 51.9845 102.236 51.9797 98.6068C51.975 94.9775 48.7137 92.0396 44.6955 92.0449C40.6772 92.0501 37.4236 94.9965 37.4284 98.6258C37.4331 102.255 40.6944 105.193 44.7126 105.188Z" fill="#FBBEBE"/>
<path d="M51.5288 99.8781C52.9754 99.8762 54.1466 98.701 54.1447 97.2533C54.1428 95.8055 52.9686 94.6334 51.5219 94.6353C50.0753 94.6372 48.9041 95.8123 48.906 97.2601C48.9079 98.7079 50.0821 99.88 51.5288 99.8781Z" fill="#FBBEBE"/>
<path d="M45.6591 98.6151C51.1941 98.6079 55.6796 97.4012 55.6777 95.9198C55.6757 94.4385 51.1872 93.2435 45.6522 93.2507C40.1171 93.2579 35.6317 94.4646 35.6336 95.946C35.6356 97.4273 40.1241 98.6223 45.6591 98.6151Z" fill="#FBBEBE"/>
<path d="M36.7176 95.3727C36.9624 96.146 37.1552 96.9347 37.2948 97.7338C36.4522 96.8799 35.7219 95.922 35.1216 94.8831C34.9599 94.7041 34.8299 94.4987 34.7371 94.2759C33.8401 92.1943 33.2274 90.0875 33.2244 87.8059C33.2208 85.1604 33.9563 82.5665 35.348 80.3173C36.7396 78.0681 38.732 76.2532 41.1 75.0774C43.468 73.9016 46.1173 73.4119 48.7487 73.6635C51.3802 73.9151 53.8889 74.8981 55.9916 76.5014C58.0943 78.1046 59.7072 80.2643 60.6481 82.7366C61.589 85.2088 61.8204 87.8951 61.3163 90.4921C60.8121 93.089 59.5924 95.4931 57.795 97.4329C55.9976 99.3728 53.694 100.771 51.1444 101.47C51.576 100.071 52.1676 98.706 52.243 97.2557C52.2889 96.772 52.2183 96.2842 52.0369 95.8334C51.7941 95.354 51.4359 94.9425 50.9948 94.6359C49.4144 93.4309 47.3823 92.9059 45.395 92.9417C43.4055 93.027 41.4516 93.4986 39.642 94.3303C39.0709 94.5769 38.3868 94.9093 37.7109 95.1367C37.3887 95.2489 37.0558 95.328 36.7176 95.3727Z" fill="#FBBEBE"/>
<path d="M72.7087 126.368C71.8025 127.825 69.8627 128.273 68.1568 128.145C64.9768 127.914 62.082 126.219 59.6228 124.178C57.1636 122.138 55.0132 119.765 52.4989 117.801C47.8212 114.142 42.5557 112.676 36.6103 112.599C37.7711 111.633 37.3403 109.346 37.4322 107.844C37.6324 104.805 37.8216 101.686 37.4202 98.6921C37.3784 98.369 37.3311 98.0514 37.2755 97.7338C37.3694 97.8331 37.4689 97.9296 37.5712 98.029C39.3414 99.7247 41.5202 100.933 43.8954 101.536C46.2706 102.139 48.7613 102.116 51.1251 101.47C50.9737 101.951 50.8554 102.442 50.771 102.94C50.4315 105.075 51.0085 107.24 51.577 109.331C51.9154 110.581 52.3173 111.923 53.3479 112.704C54.0165 113.211 54.8586 113.409 55.6511 113.676C57.2309 114.212 58.6895 115.055 59.9436 116.156C60.8168 116.92 61.6018 117.812 62.5384 118.476C63.429 119.038 64.367 119.521 65.3418 119.92C67.7343 121.021 69.9953 122.389 72.0818 123.996C72.4755 124.242 72.7821 124.605 72.9581 125.034C73.01 125.262 73.0146 125.498 72.9717 125.727C72.9288 125.957 72.8393 126.175 72.7087 126.368Z" fill="#FBBEBE"/>
<path d="M89.0476 153.111C88.8588 154.371 87.7063 155.356 86.8934 156.335C84.6832 159.011 82.4427 161.697 79.9701 164.147C77.3238 166.766 74.4176 169.102 71.5143 171.437L67.7479 174.461C67.2833 174.887 66.7386 175.216 66.1455 175.43C65.4506 175.604 64.716 175.518 64.0806 175.187C63.8275 175.066 63.5878 174.919 63.3651 174.748C62.5832 174.142 62.008 173.314 61.4467 172.5C58.8915 168.777 56.3335 165.055 53.7728 161.331C52.8602 160 51.9641 158.634 51.0736 157.268C50.9547 157.091 50.8413 156.912 50.7223 156.735C49.9092 155.493 49.0989 154.251 48.2665 153.051L43.7206 150.927L43.1241 150.652L42.4198 150.324C41.4835 149.886 40.5335 149.44 39.7542 148.761C39.008 148.061 38.3862 147.239 37.9156 146.33C37.0043 144.649 36.2071 142.909 35.5295 141.121C33.5911 136.242 31.8842 131.156 31.8056 125.902C31.7361 121.281 33.0934 116.473 36.1582 113.077C36.5771 112.61 37.0275 112.172 37.5062 111.766C38.0962 111.271 38.7058 110.98 39.465 111.087C40.2242 111.193 40.9447 111.303 41.6735 111.426C43.6834 111.77 45.6777 112.191 47.6564 112.689C49.44 113.143 51.2872 113.659 53.0891 113.295C53.3789 113.237 53.6658 113.154 53.9528 113.079C54.1873 113.018 54.4191 112.959 54.6592 112.92C54.7924 112.897 54.927 112.882 55.0621 112.876C56.0198 112.825 56.9394 113.207 57.8231 113.585C59.5105 114.306 61.2476 115.066 62.519 116.396C63.2763 117.196 63.8324 118.179 64.6394 118.932C65.7171 119.939 67.1531 120.453 68.4457 121.173C68.6955 121.311 68.9363 121.465 69.1667 121.633C69.6767 122.014 70.1404 122.454 70.5485 122.943C72.2237 124.916 73.2208 127.58 75.0699 129.542C76.5497 131.109 77.8363 132.848 78.9022 134.722C79.0765 135.034 79.2453 135.348 79.4113 135.669C79.688 136.201 79.9454 136.742 80.1835 137.289C80.2444 137.43 80.3053 137.565 80.3607 137.712C80.7091 138.539 81.0133 139.384 81.2721 140.243C81.9013 142.328 82.3211 144.579 83.7143 146.251C84.6874 147.413 86.0354 148.181 87.1711 149.183C87.9024 149.801 88.4783 150.583 88.8522 151.465C89.0578 151.988 89.125 152.555 89.0476 153.111Z" fill="#FBBEBE"/>
<path opacity="0.06" d="M81.3418 136.531C81.0258 136.931 80.7016 137.325 80.369 137.714C80.3139 137.786 80.2533 137.855 80.1926 137.924C77.2917 141.33 73.9696 144.352 70.3065 146.918C68.0398 148.506 65.6486 149.915 63.2629 151.321L58.85 153.916C57.0049 155.003 55.135 156.1 53.0878 156.727C52.4311 156.924 51.7441 157.082 51.0736 157.268C50.9547 157.091 50.8413 156.912 50.7224 156.735C49.9093 155.493 49.0989 154.251 48.2666 153.051L43.7206 150.927C46.2276 149.337 48.4509 147.338 50.2986 145.013C53.0543 141.603 55.1718 137.717 57.2589 133.855C57.629 133.232 57.9167 132.563 58.1147 131.865C58.3892 130.707 58.1558 129.492 57.8148 128.355C56.5667 124.276 53.9491 120.754 50.4047 118.384C47.9184 116.73 45.0907 115.725 42.2796 114.757C40.3163 114.08 38.1653 113.425 36.1701 113.707C36.5883 113.24 37.0388 112.803 37.5181 112.398C38.1081 111.9 38.7177 111.61 39.4769 111.716C40.2361 111.823 40.9566 111.933 41.6855 112.059C43.1627 112.51 44.6152 113.049 46.0595 113.606C47.0096 113.953 47.9327 114.37 48.8213 114.853C49.7058 115.392 50.5556 115.986 51.3657 116.632C53.7613 118.454 56.2834 120.104 58.9128 121.569C61.9511 123.242 65.1408 124.599 68.3278 125.976C68.6658 126.15 69.0388 126.244 69.4184 126.251C69.6086 126.251 69.7931 126.187 69.9429 126.069C70.0927 125.952 70.1992 125.788 70.2456 125.604C70.258 125.403 70.2117 125.202 70.1124 125.027C69.5589 123.898 68.305 123.33 67.1699 122.782C62.4582 120.506 58.3137 117.227 54.2134 113.973C54.1138 113.895 54.0263 113.802 53.9536 113.697L54.66 113.539C59.2482 116.828 64.0933 119.743 69.1482 122.255C69.4152 122.39 69.6831 122.523 69.952 122.651C70.1453 122.748 70.3359 122.841 70.5319 122.927C71.8936 123.593 73.2552 124.304 74.2807 125.408C74.9421 126.169 75.5 127.015 75.94 127.922C77.0709 130.054 78.0372 132.269 78.8302 134.548C78.8453 134.597 78.8629 134.645 78.8829 134.691C78.9835 135.04 79.157 135.362 79.392 135.638C79.4747 135.731 79.5729 135.808 79.6821 135.867C80.2014 136.173 80.9135 136.139 81.3418 136.531Z" fill="black"/>
<path d="M54.6702 112.92C59.2578 116.209 64.1029 119.123 69.1584 121.633L69.9622 122.032C71.5088 122.787 73.1189 123.537 74.2936 124.789C74.9545 125.552 75.5124 126.398 75.953 127.306C77.0846 129.437 78.05 131.652 78.8405 133.932C79.0178 134.437 79.2255 134.992 79.6951 135.251C80.1646 135.51 80.9098 135.49 81.3271 135.882C80.9523 136.352 80.5721 136.816 80.1779 137.264C77.2778 140.671 73.9557 143.694 70.2918 146.26C68.0251 147.849 65.6339 149.258 63.2482 150.664L58.8354 153.258C56.9902 154.343 55.1203 155.44 53.0731 156.067C52.3033 156.302 51.4893 156.48 50.7085 156.708C49.8954 155.466 49.0851 154.224 48.2527 153.023L43.1102 150.621C45.8683 149.054 48.2722 146.827 50.2784 144.353C53.0341 140.946 55.1516 137.059 57.2387 133.198C57.6083 132.574 57.896 131.905 58.0945 131.208C58.369 130.05 58.1356 128.832 57.7946 127.694C56.5459 123.629 53.9359 120.117 50.4038 117.752C47.9175 116.097 45.0899 115.096 42.2788 114.124C40.3154 113.45 38.1644 112.793 36.1692 113.077C36.5882 112.61 37.0386 112.172 37.5172 111.766C38.1073 111.271 38.7169 110.98 39.476 111.087C40.2352 111.193 40.9558 111.303 41.6846 111.426C43.1619 111.88 44.6144 112.42 46.0587 112.976C47.0092 113.322 47.9324 113.739 48.8204 114.223C49.7049 114.762 50.5547 115.356 51.3648 116.002C53.7644 117.82 56.2901 119.466 58.923 120.925C61.9613 122.601 65.151 123.97 68.338 125.333C68.6759 125.506 69.0489 125.6 69.4286 125.608C69.619 125.608 69.804 125.544 69.954 125.427C70.104 125.31 70.2103 125.145 70.2558 124.96C70.2679 124.76 70.2216 124.56 70.1226 124.386C69.5691 123.257 68.3152 122.687 67.1801 122.141C62.4683 119.866 58.3239 116.584 54.2236 113.319C54.1232 113.241 54.0355 113.148 53.9638 113.043L54.6702 112.92Z" fill="#6C63FF"/>
<path d="M93.362 127.866C102.93 127.854 110.677 120.081 110.665 110.505C110.652 100.929 102.885 93.1761 93.3168 93.1886C83.7483 93.2011 76.0016 100.974 76.014 110.55C76.0265 120.126 83.7935 127.879 93.362 127.866Z" fill="#6C63FF"/>
<path d="M110.655 179.512C113.897 178.489 117.188 177.446 120.035 175.578C122.034 174.266 123.757 172.579 125.571 171.018C126.936 169.845 128.358 168.739 129.61 167.444C130.731 166.233 131.78 164.957 132.751 163.623C134.963 160.717 137.248 157.867 139.605 155.073C140.87 153.582 142.206 152.064 143.975 151.233C147.116 149.751 150.808 150.743 154.127 151.753C159.097 153.266 164.043 154.87 168.694 157.176C171.34 158.49 173.903 159.956 176.574 161.215C181.457 163.515 186.639 165.091 191.803 166.659C192.187 166.822 192.613 166.856 193.017 166.757C193.307 166.623 193.555 166.415 193.737 166.153C194.409 165.321 194.947 164.388 195.332 163.389C195.405 163.276 195.432 163.138 195.408 163.006C195.384 162.873 195.31 162.754 195.201 162.674C192.99 160.525 190.123 159.205 187.444 157.676C185.312 156.461 183.27 155.096 181.231 153.731C179.273 152.422 177.297 151.098 175.653 149.413C174.824 148.56 174.077 147.619 173.179 146.841C172.386 146.194 171.546 145.606 170.665 145.082C166.728 142.573 162.968 139.793 159.415 136.763C156.713 134.457 154.498 131.485 151.611 129.417C149.84 128.149 147.78 126.994 145.616 127.229C142.983 127.509 141.043 129.721 139.21 131.63C133.049 138.049 125.272 142.647 118.395 148.294C112.782 152.898 107.536 158.366 100.694 160.8C101.002 161.816 101.111 162.832 101.421 163.837C101.809 165.235 102.291 166.604 102.865 167.935C103.434 169.114 104.074 170.257 104.782 171.358L107.531 175.837C108.085 176.748 108.663 177.673 109.453 178.395C109.868 178.792 110.654 178.935 110.655 179.512Z" fill="#464353"/>
<path opacity="0.06" d="M110.655 179.512C113.897 178.489 117.188 177.446 120.035 175.578C122.034 174.266 123.757 172.579 125.571 171.018C126.936 169.845 128.358 168.739 129.61 167.444C130.731 166.233 131.78 164.957 132.751 163.623C134.963 160.717 137.248 157.867 139.605 155.073C140.87 153.582 142.206 152.064 143.975 151.233C147.116 149.751 150.808 150.743 154.127 151.753C159.097 153.266 164.043 154.87 168.694 157.176C171.34 158.49 173.903 159.956 176.574 161.215C181.457 163.515 186.639 165.091 191.803 166.659C192.187 166.822 192.613 166.856 193.017 166.757C193.307 166.623 193.555 166.415 193.737 166.153C194.409 165.321 194.947 164.388 195.332 163.389C195.405 163.276 195.432 163.138 195.408 163.006C195.384 162.873 195.31 162.754 195.201 162.674C192.99 160.525 190.123 159.205 187.444 157.676C185.312 156.461 183.27 155.096 181.231 153.731C179.273 152.422 177.297 151.098 175.653 149.413C174.824 148.56 174.077 147.619 173.179 146.841C172.386 146.194 171.546 145.606 170.665 145.082C166.728 142.573 162.968 139.793 159.415 136.763C156.713 134.457 154.498 131.485 151.611 129.417C149.84 128.149 147.78 126.994 145.616 127.229C142.983 127.509 141.043 129.721 139.21 131.63C133.049 138.049 125.272 142.647 118.395 148.294C112.782 152.898 107.536 158.366 100.694 160.8C101.002 161.816 101.111 162.832 101.421 163.837C101.809 165.235 102.291 166.604 102.865 167.935C103.434 169.114 104.074 170.257 104.782 171.358L107.531 175.837C108.085 176.748 108.663 177.673 109.453 178.395C109.868 178.792 110.654 178.935 110.655 179.512Z" fill="black"/>
<path d="M186.21 174.152C186.518 174.587 186.728 175.084 186.824 175.609C186.92 176.134 186.9 176.673 186.766 177.19C187.747 177.898 188.942 178.248 190.151 178.182C191.354 178.114 192.537 177.842 193.65 177.377C194.613 177.022 195.526 176.542 196.364 175.948C197.806 174.88 198.844 173.354 199.684 171.77C200.15 170.899 200.546 169.769 199.943 168.985C199.713 168.718 199.431 168.5 199.114 168.345C196.99 167.135 194.779 166.084 192.499 165.202C191.872 164.914 191.191 164.762 190.5 164.754C189.65 164.802 188.881 165.27 188.208 165.791C186.697 166.971 185.479 168.485 184.651 170.215C184.392 170.768 183.61 172.083 183.997 172.652C184.174 172.914 184.825 173.005 185.101 173.167C185.536 173.414 185.913 173.75 186.21 174.152Z" fill="#FBBEBE"/>
<path d="M198.84 167.6C203.511 168.464 207.809 170.715 212.4 171.927C214.259 172.416 216.172 172.751 217.947 173.472C219.723 174.194 221.397 175.429 222.164 177.19C222.488 178.036 222.704 178.919 222.805 179.819C223.006 181.092 223.17 182.515 222.415 183.56C221.619 184.666 220.112 184.914 218.763 185.076C213.911 185.662 209.06 186.246 204.192 186.661C203.208 186.724 202.228 186.842 201.258 187.016C200.458 187.18 199.677 187.421 198.882 187.61C197.856 187.854 196.807 188.005 195.764 188.166C193.096 188.551 190.397 188.941 187.716 188.649C186.493 188.515 185.124 188.122 184.584 187.018C184.36 186.446 184.265 185.831 184.306 185.217C184.304 183.579 184.274 181.938 184.299 180.3C184.322 178.618 184.402 176.872 185.162 175.371C185.351 174.912 185.707 174.542 186.157 174.334C186.435 174.254 186.725 174.228 187.013 174.256C188.448 174.304 189.933 174.362 191.218 175.002C192.237 175.506 192.969 173.994 194.007 174.446C195.976 175.313 194.64 172.677 196.628 173.495C197.09 172.063 199.062 172.911 198.718 171.445C198.374 169.979 199.603 170.615 199.46 169.107C199.453 168.778 199.389 168.453 199.271 168.146C199.116 167.851 199.165 167.552 198.84 167.6Z" fill="#464353"/>
<path opacity="0.06" d="M58.8302 79.4028C57.7601 80.0284 56.4323 79.9142 55.1847 79.8882C54.0936 79.867 53.0025 79.9247 51.9197 80.0609C51.5298 80.0887 51.1487 80.1904 50.7967 80.3607C50.3385 80.6573 49.9765 81.0811 49.755 81.5802C49.3144 82.4299 49.018 83.347 48.878 84.2939C48.7248 85.3576 48.7429 86.5205 48.0816 87.3639C47.1805 88.5114 45.7726 88.3365 44.495 88.5646C43.3831 88.7797 42.3176 89.1887 41.3472 89.7731C40.3904 90.353 39.5698 91.1326 38.9413 92.0586C38.3128 92.9847 37.8913 94.0355 37.7053 95.1394C37.6698 95.3908 37.6453 95.6395 37.6346 95.8909C37.6079 96.6036 37.6806 97.33 37.5877 98.0289C37.5652 98.2034 37.5303 98.3761 37.4834 98.5456C37.4713 98.5955 37.4557 98.6444 37.4367 98.6921C37.3949 98.369 37.3476 98.0514 37.2919 97.7338C36.4493 96.8799 35.7191 95.922 35.1188 94.8831C34.9571 94.7041 34.8271 94.4987 34.7343 94.2759C33.8373 92.1943 33.2246 90.0875 33.2216 87.8059C33.2175 84.8137 34.159 81.8968 35.9115 79.4725C37.6639 77.0482 40.1376 75.2406 42.9786 74.3083C45.8196 73.376 48.8824 73.3666 51.7291 74.2817C54.5757 75.1967 57.0603 76.9892 58.8274 79.4028L58.8302 79.4028Z" fill="black"/>
<path d="M59.7313 73.9654C59.0198 72.3228 57.5195 71.159 55.9782 70.2467C52.9397 68.4386 49.4439 67.3051 45.8998 67.2628C44.1117 67.2656 42.3286 67.453 40.579 67.8222C38.8739 68.1295 37.2037 68.6064 35.5933 69.2457C32.9361 70.3558 30.5883 72.0955 28.752 74.3152C28.3657 74.345 27.9826 74.4074 27.6068 74.5017C26.1058 74.8793 24.7544 75.707 23.5218 76.6451C22.4903 77.3949 21.5745 78.2923 20.8038 79.3087C19.9019 80.6065 19.2789 82.0774 18.974 83.6285C17.9287 88.4805 19.2297 93.484 20.1855 98.3527C21.1413 103.221 21.7031 108.541 19.3765 112.919C18.4981 114.578 17.2496 115.988 16.3133 117.603C15.377 119.217 14.7557 121.16 15.2907 122.949C15.9284 125.125 18.0665 126.503 19.1842 128.46C19.8688 129.74 20.1144 131.21 19.8834 132.644C19.6524 134.077 18.9576 135.395 17.9055 136.395C19.659 137.001 21.6096 136.343 23.1871 135.369C24.4379 134.638 25.5016 133.626 26.2939 132.412C28.2743 129.194 27.3884 125.044 28.0735 121.327C28.9863 116.465 32.6903 112.123 32.1733 107.201C31.8239 103.887 29.6343 101.141 27.9111 98.3012C26.7616 96.4071 25.795 94.4077 25.0245 92.3301C24.4705 90.8475 24.0213 89.2543 24.2925 87.696C24.3823 87.2202 24.5271 86.7565 24.724 86.3143C24.7241 86.3668 24.7242 86.4192 24.7243 86.4717C24.7576 87.9025 25.0805 89.3116 25.6736 90.6139C27.7326 94.8099 33.2024 96.3497 35.5235 100.404C36.1988 99.666 36.9016 98.8917 37.1763 97.93C37.4181 97.0734 37.2927 96.162 37.3274 95.2725C37.4208 92.7863 38.9275 90.442 41.0401 89.1575C42.0097 88.5722 43.0755 88.1639 44.1879 87.9518C45.4627 87.7209 46.8706 87.8931 47.7745 86.7455C48.4358 85.916 48.4177 84.7393 48.5737 83.6783C48.7124 82.7302 49.0088 81.812 49.4506 80.9619C49.6714 80.463 50.0336 80.0399 50.4924 79.7451C50.8448 79.5734 51.227 79.4716 51.6181 79.4453C52.6999 79.3091 53.7902 79.2513 54.8804 79.2726C56.1418 79.3013 57.4916 79.4128 58.5727 78.7622C60.0951 77.8321 60.4428 75.6219 59.7313 73.9654Z" fill="#464353"/>
<path opacity="0.06" d="M213.95 58.5166C213.95 58.5553 213.95 58.5912 213.95 58.6299C213.456 62.9397 209.316 62.7462 208.358 69.5371C207.981 72.1977 203.946 72.6947 201.295 73.4136C200.149 73.0283 198.989 72.6956 197.843 72.28C195.192 71.3249 197.042 69.8834 198.175 68.335C201.881 63.2641 202.575 56.3409 206.784 51.681C208.334 54.618 210.782 56.9816 213.77 58.4257C213.828 58.4643 213.889 58.4918 213.95 58.5166Z" fill="black"/>
<path d="M214.043 56.0442C214.044 56.6977 214.008 57.3506 213.936 58.0001C213.433 62.4857 211.202 66.5984 207.718 69.4641C204.233 72.3299 199.769 73.7228 195.275 73.3468C190.78 72.9708 186.61 70.8556 183.649 67.4507C180.688 64.0458 179.171 59.6195 179.419 55.1127C179.668 50.6058 181.662 46.3736 184.98 43.3154C188.297 40.2573 192.675 38.6143 197.184 38.7356C201.692 38.8569 205.976 40.7329 209.124 43.965C212.272 47.1971 214.037 51.5305 214.043 56.0442Z" fill="#A1616A"/>
<path d="M221.015 57.9743C223 57.875 224.908 58.6515 226.742 59.4142C234.013 62.4433 241.345 65.4971 247.846 69.9498C251.05 72.1554 254.021 74.6597 256.986 77.1723L269.168 87.5039C271.509 89.487 273.866 91.4893 275.746 93.9177C276.853 95.4155 277.862 96.9827 278.769 98.6096L280.578 101.687C281.319 102.892 281.967 104.151 282.515 105.455C283.445 107.832 283.794 110.605 285.668 112.34C286.925 113.507 288.656 113.98 290.192 114.749C291.728 115.517 293.231 116.869 293.208 118.587C293.21 119.692 292.543 120.687 292.042 121.682C291.004 123.762 290.571 126.091 290.792 128.405L270.872 113.21C270.079 112.606 269.25 111.983 268.275 111.78C267.011 111.506 265.723 111.985 264.503 112.418C254.89 115.825 244.671 117.182 234.503 116.404C230.006 116.056 225.44 115.253 221.501 113.056C219.322 111.844 217.393 110.236 215.478 108.645C213.088 106.648 210.69 104.646 208.57 102.361C208.017 101.751 207.442 101.081 207.3 100.263C207.194 99.6725 207.323 99.0701 207.372 98.4734C207.715 94.2826 204.232 90.7983 203.167 86.7309C202.694 84.8129 202.756 82.8016 203.348 80.9169C203.94 79.0322 205.039 77.3467 206.523 76.0447C208.897 78.1189 208.816 81.768 208.544 84.909C208.177 89.1386 209.361 91.2336 208.994 95.4659C210.496 95.4087 210.224 96.3759 210.862 95.0132C211.501 93.6506 211.623 92.1146 211.742 90.6145C212.179 85.1888 212.71 79.7722 213.336 74.3647C213.647 71.66 214.002 68.9608 214.344 66.2588C214.551 64.615 214.522 63.0792 215.387 61.6195C216.587 59.5987 218.631 58.0906 221.015 57.9743Z" fill="#6C63FF"/>
<path d="M223.619 62.8988C224.883 62.4994 226.244 62.8622 227.514 63.239C229.76 63.9027 231.993 64.6042 234.213 65.3434C236.027 65.946 237.866 66.5928 239.402 67.7316C240.996 68.9118 242.166 70.5538 243.325 72.1682C244.154 73.3301 244.984 74.5057 245.537 75.8254C246.257 77.5536 246.453 79.4483 246.649 81.3098C246.776 82.1131 246.767 82.9322 246.621 83.7324C246.363 84.6014 245.908 85.3989 245.291 86.0628C244.343 87.1896 243.242 88.1792 242.022 89.0033C238.776 91.1953 234.849 92.112 231.025 92.9208C227.612 93.6407 224.173 94.3108 220.69 94.5308C219.335 94.6182 217.762 94.5347 216.932 93.464C216.696 93.1301 216.51 92.7638 216.379 92.3764C214.337 86.9844 213.448 81.2235 213.771 75.4662C213.799 74.4169 213.96 73.3753 214.25 72.3663C214.535 71.5588 214.89 70.7774 215.309 70.0308C216.353 68.0489 217.451 65.9978 219.252 64.6696C221.135 63.286 223.577 62.8464 225.915 62.9317" fill="#A1616A"/>
<path opacity="0.06" d="M236.362 83.3673C235.278 84.1008 234.902 85.5155 234.765 86.8195C234.185 92.3642 236.477 97.8499 236.333 103.422C236.217 107.841 234.572 112.086 232.949 116.213C230.181 123.252 228.745 130.894 228.194 138.439C227.644 145.983 226.834 153.84 222.796 160.226C221.879 161.672 220.81 163.016 219.912 164.47C218.97 165.991 218.224 167.621 217.393 169.203C214.943 173.872 211.782 178.132 208.025 181.83C206.922 182.909 205.753 183.955 204.346 184.578C203.44 184.973 202.463 185.183 201.474 185.194C200.486 185.206 199.504 185.02 198.589 184.646C196.7 183.867 195.108 182.107 195.028 180.063C194.956 178.234 196.044 176.584 197.136 175.118C200.834 170.153 205.088 165.629 209.815 161.633C210.672 160.908 211.576 160.158 212.019 159.124C212.517 157.933 212.311 156.583 212.373 155.293C212.473 153.235 213.271 151.281 213.745 149.275C215.667 141.126 212.222 132.236 215.005 124.341C215.623 122.586 216.543 120.908 216.759 119.06C216.912 117.767 216.587 116.322 215.78 115.354C215.021 114.483 214.596 113.372 214.578 112.217C214.577 111.98 214.577 111.745 214.607 111.513C214.939 107.897 215.268 104.264 215.081 100.637C214.895 97.0106 214.169 93.3654 212.493 90.144C211.624 88.4739 210.501 86.9119 209.963 85.1088C209.098 82.1902 209.889 79.0319 211.169 76.2679C212.168 74.1065 213.501 72.0469 215.365 70.5639C218.828 67.8109 224.017 67.4864 227.815 69.7549C230.616 71.4252 232.535 74.2374 234.093 77.1054C235.211 79.2005 236.389 80.9752 236.362 83.3673Z" fill="black"/>
<path d="M236.991 83.3665C235.907 84.0999 235.531 85.5147 235.395 86.8187C234.814 92.3634 237.106 97.8491 236.962 103.421C236.846 107.841 235.201 112.086 233.578 116.212C230.811 123.251 229.377 130.893 228.824 138.438C228.27 145.982 227.464 153.839 223.426 160.226C222.508 161.671 221.442 163.015 220.541 164.469C219.602 165.99 218.853 167.621 218.022 169.202C215.571 173.871 212.411 178.131 208.654 181.829C207.551 182.908 206.38 183.954 204.973 184.577C204.066 184.972 203.09 185.182 202.101 185.193C201.112 185.205 200.131 185.019 199.215 184.645C197.329 183.866 195.737 182.106 195.657 180.062C195.583 178.233 196.671 176.583 197.765 175.117C201.463 170.152 205.717 165.628 210.444 161.632C211.301 160.907 212.208 160.157 212.649 159.124C213.149 157.932 212.941 156.582 213.002 155.292C213.102 153.234 213.9 151.28 214.375 149.274C216.296 141.125 212.851 132.235 215.634 124.34C216.253 122.585 217.175 120.907 217.391 119.059C217.541 117.766 217.219 116.322 216.412 115.353C215.639 114.488 215.201 113.376 215.177 112.217C215.176 111.979 215.176 111.744 215.206 111.512C215.535 107.896 215.864 104.263 215.678 100.637C215.491 97.0099 214.766 93.3646 213.089 90.1432C212.22 88.4731 211.097 86.9111 210.559 85.1081C209.694 82.1894 210.485 79.0311 211.765 76.2672C212.767 74.1057 214.097 72.0461 215.961 70.5631C219.424 67.8101 224.613 67.4857 228.411 69.7541C231.212 71.4244 233.131 74.2367 234.689 77.1046C235.834 79.1997 237.007 80.9744 236.991 83.3665Z" fill="#A1616A"/>
<path d="M264.998 155.462L264.761 155.534L264.998 155.462Z" fill="#464353"/>
<path d="M216.671 167.85C216.681 167.757 216.697 167.665 216.72 167.574L216.671 167.85Z" fill="#464353"/>
<path d="M275.823 148.818C276.617 147.897 277.841 147.484 279.02 147.176C280.918 146.682 282.858 146.363 284.815 146.224C286.029 146.091 287.257 146.165 288.447 146.443C289.624 146.764 290.74 147.464 291.337 148.527C291.866 149.466 291.95 150.582 292.02 151.656C292.167 153.866 292.302 156.075 291.94 158.252C291.708 159.634 291.271 160.971 290.988 162.342C290.072 166.835 290.878 171.482 290.802 176.068C290.784 177.046 290.721 178.049 290.311 178.936C289.874 179.878 289.085 180.595 288.316 181.303C287.47 182.069 286.61 182.841 285.589 183.353C284.077 184.115 282.336 184.244 280.644 184.299C279.615 184.331 278.555 184.335 277.607 183.958C276.66 183.58 275.806 182.731 275.736 181.701C275.623 179.952 277.592 178.806 278.153 177.148C278.599 175.827 278.084 174.369 277.37 173.168C276.225 171.254 274.594 169.679 272.641 168.603C271.918 168.206 271.147 167.873 270.545 167.313C269.942 166.753 269.533 165.883 269.788 165.104C270.093 164.162 271.189 163.721 272.174 163.626C273.159 163.531 274.2 163.601 275.085 163.161C275.874 162.77 276.422 162.018 276.8 161.225C277.602 159.532 277.711 157.592 277.104 155.819C276.864 155.144 276.517 154.513 276.075 153.95C275.66 153.42 274.81 152.974 274.514 152.394C273.988 151.351 275.12 149.648 275.823 148.818Z" fill="#6C63FF"/>
<path opacity="0.06" d="M259.732 108.808C255.167 104.781 248.809 103.693 242.845 102.477C239.773 101.853 236.716 101.157 233.673 100.389C231.674 99.8837 229.67 99.3449 227.599 99.2067C225.529 99.0685 223.399 99.3613 221.628 100.419C219.858 101.476 218.524 103.39 218.516 105.453C218.517 106.282 218.714 107.094 218.654 107.914C218.559 109.235 217.829 110.401 217.331 111.637C216.57 113.589 216.456 115.735 217.005 117.758C217.893 120.981 220.441 123.817 220.225 127.146C219.865 132.718 219.986 138.541 221.136 143.995C222.285 149.449 223.72 154.927 223.694 160.51C223.668 166.092 221.986 171.964 217.826 175.688C220.652 178.336 224.105 180.219 227.861 181.158C231.072 181.958 234.889 181.873 237.171 179.475C237.701 178.921 238.138 178.183 238.027 177.424C237.913 176.945 237.711 176.491 237.432 176.085C235.858 173.272 236.044 169.803 236.735 166.658C237.427 163.514 238.612 160.457 238.909 157.247C239.127 154.918 238.875 152.551 239.317 150.252C239.656 148.492 240.394 146.834 240.836 145.096C242.141 139.94 240.756 134.53 239.38 129.397C240.529 132.033 242.699 134.089 244.942 135.876C248.346 138.584 252.462 140.973 256.784 140.487C260.631 140.051 263.904 137.37 266.16 134.226C266.175 130.594 267.429 127.159 267.2 123.535C267.054 121.943 266.768 120.368 266.344 118.826C265.92 117.103 265.484 115.364 264.682 113.782C263.622 111.681 261.495 110.361 259.732 108.808Z" fill="black"/>
<path d="M260.676 108.807C256.111 104.78 249.755 103.691 243.789 102.475C240.717 101.852 237.661 101.156 234.62 100.388C232.621 99.8824 230.614 99.3436 228.546 99.2055C226.479 99.0673 224.348 99.3601 222.578 100.418C220.807 101.475 219.471 103.388 219.465 105.452C219.466 106.28 219.661 107.092 219.601 107.913C219.509 109.233 218.762 110.4 218.278 111.635C217.518 113.588 217.404 115.735 217.955 117.757C218.84 120.979 221.388 123.816 221.174 127.145C220.812 132.717 220.933 138.539 222.082 143.993C223.232 149.447 224.666 154.926 224.64 160.509C224.615 166.091 222.922 171.944 218.759 175.662C221.585 178.309 225.039 180.192 228.794 181.132C232.005 181.932 235.825 181.846 238.104 179.449C238.633 178.895 239.071 178.157 238.96 177.398C238.845 176.919 238.644 176.465 238.365 176.059C236.791 173.246 236.977 169.776 237.668 166.632C238.359 163.488 239.545 160.431 239.844 157.221C240.06 154.892 239.808 152.525 240.252 150.226C240.589 148.466 241.33 146.808 241.769 145.07C243.073 139.914 241.692 134.504 240.313 129.371C241.462 132.007 243.632 134.062 245.878 135.849C249.282 138.558 253.395 140.947 257.717 140.461C261.564 140.025 264.836 137.344 267.093 134.2C267.105 130.568 268.359 127.133 268.131 123.509C267.984 121.917 267.698 120.342 267.274 118.8C266.853 117.077 266.414 115.338 265.612 113.756C264.582 111.68 262.439 110.36 260.676 108.807Z" fill="#A1616A"/>
<path d="M229.091 178.554C227.065 177.323 225.314 175.686 223.948 173.746C223.456 173.051 223.014 172.311 222.4 171.721C221.787 171.13 220.955 170.692 220.108 170.782C219.15 170.883 218.384 171.613 217.778 172.365C216.152 174.386 215.106 176.857 213.301 178.724C211.217 180.884 208.306 182.045 205.401 182.789C202.496 183.533 199.496 183.927 196.649 184.867C195.755 185.161 194.814 185.56 194.332 186.37C193.721 187.401 194.059 188.751 194.706 189.773C195.898 191.705 197.948 192.948 200.085 193.685C202.223 194.423 204.484 194.715 206.712 195.149C210.649 195.914 214.683 197.144 218.598 196.269C220.16 195.919 221.633 195.243 223.211 194.948C226.799 194.275 230.502 195.621 234.103 195.075C235.844 194.81 237.489 194.112 239.069 193.325C239.862 192.981 240.582 192.49 241.192 191.878C241.768 191.236 242.115 190.327 241.877 189.498C241.741 189.021 241.428 188.618 241.221 188.168C240.894 187.472 240.827 186.69 240.749 185.925C240.447 183.013 239.938 180.126 239.225 177.287C238.978 176.296 238.609 175.191 237.684 174.759C237.495 174.657 237.275 174.633 237.069 174.69C236.74 174.815 236.633 175.213 236.534 175.547C236.264 176.472 235.747 177.305 235.037 177.955C234.328 178.606 233.454 179.05 232.51 179.238C231.566 179.427 230.589 179.353 229.685 179.025C228.78 178.697 227.982 178.127 227.378 177.377" fill="#6C63FF"/>
<path opacity="0.06" d="M214.043 56.0442C214.044 56.6977 214.008 57.3506 213.936 58.0001C213.066 58.1316 212.178 58.0558 211.343 57.779C210.508 57.5022 209.75 57.0321 209.131 56.407C208.548 55.789 208.111 55.041 207.533 54.4174C206.955 53.7939 206.151 53.2756 205.323 53.343C204.617 53.3964 204.005 53.8447 203.522 54.3646C202.895 55.0416 202.435 55.857 202.181 56.7447C201.997 57.372 201.907 58.0848 201.389 58.5026C200.87 58.9204 200.233 58.8936 199.617 58.8723C198.819 58.8457 197.991 58.8081 197.287 58.4333C195.961 57.7196 195.512 56.0822 195.019 54.6575C194.188 52.2637 192.319 47.7359 189.423 47.2563C188.042 47.0288 186.365 47.7603 185.284 48.5489C183.654 49.7361 182.452 50.5056 180.343 50.4752C181.668 46.5905 184.326 43.3019 187.845 41.1943C191.365 39.0867 195.517 38.2968 199.564 38.965C203.61 39.6331 207.289 41.7161 209.945 44.8434C212.602 47.9707 214.064 51.9396 214.071 56.0442L214.043 56.0442Z" fill="black"/>
<path d="M180.318 49.8426C179.82 49.854 179.324 49.7761 178.854 49.6125C177.515 49.0894 176.862 47.5434 176.747 46.1099C176.567 43.9252 177.293 41.7807 178.022 39.7108C178.176 39.2603 178.36 38.7767 178.763 38.5248C179.089 38.3641 179.445 38.2742 179.808 38.261C181.79 37.9822 183.508 36.7673 184.969 35.4064C186.43 34.0454 187.747 32.5023 189.38 31.3677C193.709 28.3705 200.141 28.9201 203.894 32.6056C205.381 34.0622 206.659 36.0383 208.718 36.3781C209.905 36.5727 211.177 36.1622 212.307 36.6027C213.135 36.9248 213.727 37.6561 214.203 38.404C215.746 40.8218 216.473 43.6881 216.717 46.5467C216.96 49.4054 216.743 52.2812 216.524 55.1405C216.537 55.5685 216.427 55.9914 216.208 56.3591C216.031 56.5712 215.81 56.7414 215.56 56.8571C214.511 57.3762 213.326 57.5518 212.172 57.3589C211.017 57.1661 209.953 56.6146 209.13 55.7827C208.544 55.1675 208.11 54.4194 207.532 53.7932C206.954 53.1669 206.151 52.6541 205.323 52.7215C204.619 52.7749 204.001 53.2232 203.522 53.7431C202.894 54.4201 202.434 55.2354 202.18 56.1232C201.999 56.7505 201.906 57.4633 201.388 57.8783C200.869 58.2933 200.232 58.2721 199.614 58.2508C198.819 58.2214 197.99 58.1866 197.286 57.8091C195.958 57.0981 195.508 55.4607 195.018 54.036C194.187 51.6421 192.321 47.1117 189.422 46.6348C188.041 46.4046 186.364 47.1388 185.283 47.9274C183.629 49.1063 182.437 49.8758 180.318 49.8426Z" fill="#464353"/>
<path opacity="0.06" d="M89.0476 153.111C88.8588 154.371 87.7063 155.356 86.8934 156.335C84.6832 159.011 82.4427 161.697 79.9701 164.147C77.3238 166.766 74.4176 169.102 71.5143 171.437L67.7479 174.461C67.2833 174.887 66.7386 175.216 66.1455 175.43C65.4506 175.604 64.716 175.518 64.0806 175.187C64.1356 175.076 64.1935 174.974 64.2568 174.871L68.768 167.283C69.6549 165.796 70.2355 164.442 71.2466 163.045C72.7703 160.955 74.3077 158.854 76.185 157.081C78.5586 154.837 81.6036 153.206 84.4279 151.584C84.8348 150.357 86.5456 150.015 87.7029 150.594C88.1318 150.815 88.5181 151.111 88.8439 151.468C89.0518 151.989 89.1219 152.555 89.0476 153.111Z" fill="black"/>
<path d="M69.0831 167.595L64.5719 175.186C64.3874 175.493 64.1974 175.841 64.2779 176.189C64.3799 176.481 64.5739 176.732 64.8309 176.904C66.5661 178.313 68.4891 179.799 69.0356 181.967C69.4268 183.513 69.0398 185.171 69.3896 186.723C70.0308 189.523 72.8456 191.221 75.5078 192.295C81.4728 194.702 88.0928 195.621 94.4258 194.48C100.759 193.34 106.766 190.105 110.861 185.139C112.118 183.613 113.192 181.943 114.385 180.367C117.692 176.012 121.891 172.435 126.057 168.893C131.419 164.334 134.573 157.54 139.284 152.302C140.141 151.348 141.086 150.367 142.317 150.05C143.007 149.875 143.973 150.131 144.002 150.843C144.067 152.224 145.178 153.353 145.939 154.506C148.804 158.878 151.802 163.385 156.224 166.169C158.644 167.696 161.386 168.629 164.12 169.474C171.05 171.625 178.116 173.323 185.173 175.004C185.528 174.291 185.954 173.616 186.445 172.989C187.176 172.09 188.138 171.404 188.871 170.499C190.213 168.871 190.682 166.718 191.11 164.651C186.892 162.074 182.564 159.414 178.403 156.735C176.309 155.389 174.202 154.014 172.505 152.193C171.399 150.996 170.47 149.624 169.361 148.418C168.228 147.248 167.006 146.167 165.708 145.183L155.761 137.232C152.904 134.951 149.992 132.544 147.196 130.183C145.624 128.853 143.88 127.455 141.826 127.394C140.068 127.341 138.452 128.285 136.941 129.193C128.064 134.529 119.054 139.625 109.911 144.482C108.06 145.462 106.201 146.437 104.436 147.564C101.002 149.756 97.9542 152.503 95.4158 155.691C94.9501 156.274 94.3603 156.938 93.6205 156.851C93.4171 156.821 93.2213 156.753 93.0434 156.65C91.9027 156.041 91.2028 154.862 90.5555 153.744C89.9081 152.627 89.1862 151.451 88.029 150.872C86.8717 150.294 85.1637 150.636 84.754 151.865C81.916 153.535 78.882 155.152 76.5056 157.395C74.6283 159.168 73.0909 161.267 71.5673 163.36C70.5506 164.756 69.9672 166.11 69.0831 167.595Z" fill="#464353"/>
<path opacity="0.06" d="M61.6174 121.342C61.6174 121.342 66.166 123.355 69.4287 125.63L61.6174 121.342Z" fill="black"/>
<path d="M289.295 125.197C289.381 127.774 289.45 130.357 289.423 132.931C289.409 134.296 289.353 135.718 288.7 136.915C288.235 137.775 287.499 138.447 286.771 139.105L282.23 143.235C280.821 144.516 279.302 145.852 277.423 146.172C275.273 146.54 273.172 145.496 271.103 144.8C269.021 144.1 266.84 143.737 264.643 143.722C263.385 143.724 262.115 143.825 260.873 143.628C259.974 143.458 259.093 143.209 258.239 142.883L254.132 141.463C254.247 140.427 255.234 139.765 256.061 139.11C258.998 136.719 260.282 132.881 261.205 129.208C261.955 126.341 262.488 123.422 262.8 120.475C262.938 119.016 263 117.533 262.692 116.099C262.401 114.943 261.993 113.82 261.473 112.747L260.025 109.493C259.195 107.654 257.538 106.839 255.85 105.755C258.396 106.719 261.499 107.093 263.436 109.008C263.81 109.432 264.253 109.79 264.746 110.067C265.273 110.317 265.872 110.341 266.449 110.434C269.323 110.862 271.768 112.665 274.144 114.333C277.052 116.377 280.041 118.297 283.111 120.092C284.492 120.902 285.917 121.699 287.081 122.805C288.244 123.911 289.157 125.385 289.234 126.99" fill="#464353"/>
<path opacity="0.06" d="M41.7717 120.995C38.1541 121.715 36.2772 125.974 36.4946 129.656C36.7031 132.944 38.0569 136.056 40.3205 138.449C41.8324 140.035 43.7164 141.259 45.0821 142.973C47.1003 145.5 47.8057 148.845 49.6116 151.53C50.9224 153.478 52.7599 155.006 54.5863 156.471C58.7971 159.824 63.1448 162.998 67.6293 165.992C69.4525 167.208 71.447 168.437 73.6384 168.387C75.703 168.34 77.6031 167.125 78.948 165.554C80.2929 163.984 81.1516 162.077 82.0241 160.197C85.1672 153.315 88.3323 146.358 89.8296 138.942C90.2986 136.613 90.6129 134.212 91.6645 132.081C92.4904 130.423 93.714 129.001 94.8051 127.503C97.3827 123.947 99.1899 119.891 100.111 115.596C100.709 112.794 100.907 109.794 99.9151 107.116C98.9235 104.438 96.5219 102.118 93.6649 101.911C91.4041 101.749 89.1865 102.912 87.6706 104.601C86.1548 106.291 85.2633 108.45 84.6562 110.635C83.7858 113.78 83.4541 117.049 83.6751 120.305C83.8552 122.931 84.3941 125.583 83.9448 128.18C83.627 130.012 82.8316 131.722 82.0444 133.408C80.0103 137.759 77.9432 142.165 74.8649 145.848C73.8618 147.048 72.4806 148.263 70.9428 147.983C68.817 147.599 68.2504 144.906 67.1991 143.016C65.9099 140.697 63.4681 139.305 61.5529 137.465C58.828 134.845 57.1922 131.328 55.2531 128.082C53.314 124.836 50.8064 121.632 47.2387 120.391C43.671 119.15 38.9202 120.755 38.0086 124.425" fill="black"/>
<path opacity="0.06" d="M44.5046 123.513C40.8843 124.233 36.2755 124.706 36.5066 128.393C36.7128 131.683 38.067 134.795 40.3326 137.186C41.8444 138.775 43.7284 139.999 45.0942 141.713C47.1124 144.241 47.8178 147.582 49.6237 150.27C50.9345 152.222 52.772 153.749 54.5983 155.211C58.8092 158.566 63.1568 161.74 67.6413 164.732C69.4646 165.951 71.459 167.18 73.6505 167.13C75.715 167.083 77.6152 165.866 78.9601 164.298C80.305 162.73 81.1636 160.82 82.0361 158.938C85.1793 152.055 88.3443 145.099 89.8417 137.683C90.3107 135.356 90.6249 132.953 91.6765 130.824C92.5024 129.166 93.7261 127.744 94.8171 126.243C97.3952 122.688 99.2025 118.634 100.123 114.339C100.721 111.534 100.919 108.537 99.9272 105.856C98.9355 103.175 96.534 100.861 93.6769 100.652C91.4162 100.489 89.1986 101.655 87.6827 103.342C86.1668 105.029 85.2754 107.19 84.6682 109.379C83.7977 112.523 83.466 115.792 83.6872 119.048C83.8672 121.677 84.4062 124.328 83.9569 126.923C83.6391 128.757 82.8436 130.468 82.0564 132.154C80.0224 136.505 77.9553 140.908 74.877 144.594C73.8739 145.794 72.4926 147.006 70.9549 146.729C68.8291 146.342 68.2625 143.65 67.2112 141.762C65.9219 139.443 63.4802 138.051 61.565 136.211C58.8401 133.593 57.2043 130.074 55.2652 126.828C53.3261 123.582 50.8185 120.381 47.2508 119.137C43.6831 117.893 48.1594 125.884 47.245 129.553" fill="black"/>
<path d="M41.7708 120.362C38.1532 121.082 36.2764 125.341 36.4937 129.023C36.7016 132.313 38.0554 135.425 40.3197 137.819C41.8315 139.405 43.7155 140.629 45.0813 142.343C47.0995 144.871 47.8049 148.215 49.6107 150.9C50.9216 152.851 52.7591 154.379 54.5854 155.844C58.7962 159.197 63.1439 162.37 67.6284 165.362C69.4517 166.581 71.4461 167.81 73.6376 167.76C75.7021 167.713 77.6023 166.498 78.9471 164.927C80.292 163.357 81.1507 161.45 82.0232 159.57C85.1663 152.688 88.3314 145.731 89.8288 138.312C90.2977 135.986 90.612 133.582 91.6636 131.454C92.4895 129.796 93.7131 128.374 94.8042 126.873C97.3823 123.318 99.1896 119.263 100.11 114.969C100.708 112.164 100.906 109.167 99.9142 106.486C98.9226 103.805 96.521 101.491 93.664 101.284C91.4033 101.119 89.1856 102.285 87.6698 103.974C86.1539 105.664 85.2624 107.823 84.6553 110.008C83.7849 113.153 83.4532 116.422 83.6743 119.678C83.8543 122.304 84.3932 124.956 83.944 127.55C83.6262 129.384 82.8307 131.095 82.0435 132.781C80.0095 137.132 77.9423 141.538 74.8641 145.221C73.8609 146.421 72.4797 147.633 70.9419 147.356C68.8161 146.969 68.2496 144.279 67.1983 142.389C65.909 140.067 63.4672 138.675 61.5521 136.838C58.8272 134.218 57.1913 130.701 55.2523 127.455C53.3132 124.209 50.8056 121.008 47.2379 119.767C43.6702 118.525 38.9193 120.131 38.0077 123.801" fill="#FBBEBE"/>
<g opacity="0.06">
<path opacity="0.06" d="M27.9111 98.315C26.7616 96.4209 25.795 94.4215 25.0245 92.3439L24.9303 92.0678C24.347 91.4429 23.8562 90.7375 23.4729 89.9732C22.8795 88.671 22.5565 87.2618 22.5236 85.831C22.5235 85.7785 22.5234 85.726 22.5234 85.6735C22.3264 86.1158 22.1816 86.5795 22.0918 87.0552C21.8178 88.6135 22.2753 90.204 22.8238 91.6894C23.5949 93.7667 24.5614 95.7661 25.7104 97.6605C27.4281 100.525 29.6205 103.285 29.9643 106.574C30.4814 111.496 26.7774 115.835 25.8674 120.701C25.1711 124.417 26.0653 128.567 24.085 131.785C23.2933 132.999 22.2295 134.01 20.9781 134.739C20.1934 135.241 19.334 135.615 18.432 135.848C18.2677 136.043 18.0909 136.228 17.9028 136.401C19.6562 137.006 21.6068 136.349 23.1843 135.375C24.4351 134.643 25.4988 133.631 26.2911 132.418C28.2715 129.2 27.3856 125.049 28.0708 121.333C28.9836 116.47 32.6875 112.129 32.1705 107.207C31.8239 103.898 29.6343 101.141 27.9111 98.315Z" fill="black"/>
<path opacity="0.06" d="M59.7312 73.9654C59.0197 72.3228 57.5195 71.159 55.9781 70.2467C54.0242 69.0768 51.8985 68.222 49.679 67.7136C51.1036 68.2092 52.4748 68.8469 53.772 69.617C55.3133 70.5321 56.8108 71.6931 57.5278 73.3385C58.2448 74.9839 57.8917 77.2052 56.3582 78.1243C55.2771 78.7748 53.9273 78.6606 52.6659 78.6346C51.5757 78.6111 50.4854 78.6679 49.4036 78.8046C49.0129 78.8333 48.6311 78.935 48.2779 79.1044C47.8177 79.4036 47.4554 79.8315 47.2361 80.335C46.7934 81.1849 46.4961 82.1031 46.3564 83.0514C46.2032 84.1123 46.2186 85.2752 45.5572 86.1186C44.6589 87.2661 43.251 87.0939 41.9706 87.3221C40.8587 87.5372 39.7932 87.9462 38.8229 88.5306C36.7103 89.8123 35.2036 92.1511 35.1102 94.6456C35.0782 95.5351 35.2009 96.4437 34.9618 97.3003C34.8076 97.8001 34.5652 98.2682 34.246 98.6824C34.7358 99.205 35.1644 99.7818 35.5234 100.402C36.1987 99.6633 36.9015 98.8889 37.1763 97.9273C37.4181 97.0706 37.2927 96.1592 37.3274 95.2697C37.4208 92.7836 38.9275 90.4392 41.0401 89.1547C42.0097 88.5694 43.0755 88.1612 44.1878 87.949C45.4627 87.7181 46.8706 87.8903 47.7744 86.7428C48.4358 85.9132 48.4177 84.7365 48.5736 83.6756C48.7123 82.7274 49.0087 81.8092 49.4506 80.9591C49.6713 80.4602 50.0335 80.0371 50.4923 79.7423C50.8447 79.5706 51.227 79.4688 51.6181 79.4425C52.6999 79.3063 53.7901 79.2486 54.8803 79.2698C56.1417 79.2985 57.4916 79.41 58.5727 78.7595C60.0951 77.8321 60.4427 75.6218 59.7312 73.9654Z" fill="black"/>
</g>
<path opacity="0.06" d="M41.6924 100.383C41.6924 100.383 44.9557 103.185 51.1445 101.475C51.1445 101.47 47.3126 102.986 41.6924 100.383Z" fill="black"/>
<path opacity="0.06" d="M216.46 52.8092C216.467 53.2357 216.352 53.6555 216.13 54.0195C215.954 54.2309 215.732 54.4001 215.482 54.5148C214.434 55.0344 213.249 55.2106 212.096 55.0182C210.942 54.8258 209.878 54.2747 209.055 53.4431C208.469 52.8251 208.035 52.0633 207.457 51.4536C206.88 50.8439 206.076 50.3118 205.248 50.3792C204.544 50.4353 203.929 50.8836 203.447 51.4008C202.822 52.08 202.363 52.8946 202.106 53.7809C201.927 54.4109 201.831 55.121 201.316 55.5387C200.8 55.9565 200.16 55.9297 199.542 55.9084C198.744 55.8819 197.916 55.847 197.214 55.4695C195.886 54.7586 195.436 53.1183 194.943 51.6964C194.112 49.2998 192.246 44.7721 189.35 44.2925C187.969 44.065 186.289 44.7992 185.211 45.5851C183.582 46.7722 182.379 47.5417 180.268 47.5251C179.77 47.5354 179.275 47.4574 178.805 47.295C177.589 46.8187 176.939 45.4992 176.741 44.1901C176.667 44.7903 176.652 45.3964 176.697 45.9995C176.815 47.4302 177.468 48.9762 178.807 49.5021C179.278 49.6645 179.773 49.7424 180.271 49.7322C182.382 49.7626 183.582 48.9931 185.214 47.806C186.298 47.0201 187.972 46.2831 189.353 46.5133C192.238 46.9792 194.12 51.5069 194.935 53.9007C195.428 55.3254 195.877 56.9656 197.206 57.6766C197.908 58.0513 198.736 58.0889 199.533 58.1155C200.152 58.1368 200.831 58.1387 201.308 57.7458C201.785 57.353 201.919 56.6152 202.098 55.988C202.354 55.1014 202.813 54.2866 203.439 53.6079C203.921 53.0907 204.541 52.6424 205.24 52.5863C206.09 52.5189 206.896 53.0344 207.449 53.6607C208.002 54.287 208.461 55.0405 209.047 55.6502C209.87 56.4818 210.934 57.0329 212.088 57.2253C213.241 57.4176 214.426 57.2415 215.474 56.7219C215.724 56.6062 215.945 56.4371 216.122 56.2266C216.345 55.8617 216.459 55.441 216.452 55.0135C216.665 52.6866 216.754 50.3499 216.719 48.0135C216.699 49.6129 216.582 51.2124 216.46 52.8092Z" fill="black"/>
<path d="M25.0108 170.898C25.0108 170.898 25.4491 170.408 24.6235 170.216L24.6225 169.412L25.1193 169.412C25.117 168.441 24.7816 167.5 24.1692 166.746C23.5568 165.993 22.7045 165.473 21.7548 165.273L21.7536 164.298L21.8833 164.297L21.8816 163.03L18.6882 163.034L18.6898 164.302L18.7809 164.301L18.7822 165.288C17.842 165.5 17.0021 166.026 16.401 166.78C15.7999 167.534 15.4734 168.471 15.4754 169.435L15.9143 169.435L15.9153 170.205C15.9153 170.205 14.8699 170.701 15.9171 171.587C16.9644 172.472 16.8023 173.113 16.8023 173.113C16.8023 173.113 16.3656 174.771 15.4854 174.988L15.5055 190.354C15.5057 190.803 15.5942 191.247 15.7661 191.661C15.9379 192.075 16.1896 192.452 16.5068 192.769C16.8241 193.086 17.2006 193.337 17.6149 193.508C18.0292 193.679 18.4732 193.767 18.9214 193.767L21.6181 193.763C22.5236 193.762 23.3916 193.401 24.031 192.759C24.6705 192.118 25.0291 191.248 25.0279 190.342L25.0079 174.975C25.0079 174.975 23.4635 173.82 23.7385 173.104C24.1078 172.338 24.5331 171.601 25.0108 170.898Z" fill="#464353"/>
</g>
<defs>
<linearGradient id="paint0_linear_18_16" x1="153.445" y1="196.301" x2="153.225" y2="27.5531" gradientUnits="userSpaceOnUse">
<stop stop-color="#808080" stop-opacity="0.25"/>
<stop offset="0.54" stop-color="#808080" stop-opacity="0.12"/>
<stop offset="1" stop-color="#808080" stop-opacity="0.1"/>
</linearGradient>
<clipPath id="clip0_18_16">
<rect width="318" height="213" fill="white" transform="translate(0 0.414398) rotate(-0.074663)"/>
</clipPath>
</defs>
</svg>
